<?xml version="1.0" encoding="UTF-8" standalone="no"?><svg xmlns="http://www.w3.org/2000/svg" xmlns:xlink="http://www.w3.org/1999/xlink" width="232.887" height="232.887" viewBox="0 0 232.887 232.887">
  <defs>
    <clipPath id="clip-path">
      <rect id="矩形_27" data-name="矩形 27" width="98.805" height="230.547" fill="none"/>
    </clipPath>
  </defs>
  <g id="组_12" data-name="组 12" transform="translate(0 69.866) rotate(-45)">
    <g id="组_11" data-name="组 11" clip-path="url(#clip-path)">
      <path id="路径_153" data-name="路径 153" d="M71.412,305.492c4.294,4.426,30.3,12.413,28.066,32.809s-28.6,63.255-74.086,41.206-14.808-80.294.451-88.02c16.558-8.384,27.32-5.823,35.906,4.78s9.664,9.225,9.664,9.225" transform="translate(-1.495 -155.103)" fill="#e55c5c"/>
      <path id="路径_154" data-name="路径 154" d="M70.033,360.493s18.325,18.407-8.878,41.071S10,405.146,7.4,393.119a38.173,38.173,0,0,0,26.343,29.246c34.551,11.08,53.228-11.04,60.089-25.763s7.519-29.3-2.161-33.931c-10.74-5.134-9.417,1.812-21.633-2.177" transform="translate(-3.549 -195.165)" fill="#c9494f"/>
      <path id="路径_155" data-name="路径 155" d="M10.756,424.175s20.278,7.92,38.422-1.438c23.808-12.279,35.915-39.311,29.273-48.345,0,0,17.1,11.41-7.835,43.551-18.077,23.3-56.355,12.914-59.86,6.231" transform="translate(9.701 -202.69)" fill="#ae464a"/>
      <path id="路径_156" data-name="路径 156" d="M114.168,297.474a18.881,18.881,0,0,1,13.912,6.659c5.968,6.946,10.009,15.942,4.319,24.742s-31.5,25.066-40.557,17.574-3.07-47.562,22.326-48.975" transform="translate(-76.627 -161.046)" fill="#e67574"/>
      <path id="路径_157" data-name="路径 157" d="M0,294.85s13.661-9.7,26.316-1.366,10.746,15.041,17.728,19.87,23.594,4.359,28.9,10.674,4.157,23.884.458,30.339c0,0,20.048-31.215-12.266-42.995-22.293-8.126-14.078-14.417-29.478-23.4C17.525,279.722,0,294.85,0,294.85" transform="translate(19.252 -154.57)" fill="#e55e58"/>
      <path id="路径_158" data-name="路径 158" d="M190.8,308.947s-19.813,25.086-15.864,54.112c0,0-12.361-25.431,15.864-54.112" transform="translate(-170.992 -167.259)" fill="#ea9296"/>
      <path id="路径_159" data-name="路径 159" d="M40.054,311.007a9.315,9.315,0,0,1,3.556,6.162c.366,3.893,4.984,9.242,9.422,10.065s8.831-.175,11.113.321c0,0-2.03-.69-11.592-6.646-5.553-3.459-3.972-6.75-12.5-9.9" transform="translate(16.29 -168.374)" fill="#b2474b"/>
      <path id="路径_160" data-name="路径 160" d="M109.1,314.739s5.574-4.254,14.809,3.231,5.894,17.179-1.4,20.381-16.549,5.461-19.927.87-4.15-16.963,6.514-24.482" transform="translate(-76.745 -169.742)" fill="#eda4ab"/>
      <path id="路径_161" data-name="路径 161" d="M123.2,317.793s2.466-.492,4.99,2.389-3.849,7.265-8.537,5.021.556-8.123,3.546-7.41" transform="translate(-83.968 -172.015)" fill="#faecf1"/>
      <path id="路径_162" data-name="路径 162" d="M145.9,330.586a3.018,3.018,0,0,1,2.542-1.52c2.034-.271,2.113,3.882-.275,5.31s-3.469-2.665-2.267-3.79" transform="translate(-117.838 -178.144)" fill="#faecf1"/>
      <path id="路径_163" data-name="路径 163" d="M39.4,174.832c15.759-44.81,16.964-92.894,4.29-132.666-6.957,1.58-5.271.425-8.018,4.655,21.057,52.64,8.617,108.068-9.022,125.3-6.062,1.7,18.479,12.557,12.75,2.706" transform="translate(34.727 -22.828)" fill="#426d39"/>
      <path id="路径_164" data-name="路径 164" d="M34.458,49.528c-1.2-.35-4.874,1.374-4.12,3.046,7,15.532,11.135,36.072,10.84,62.288.9-27.159-2.794-56.624-6.72-65.334" transform="translate(43.624 -26.789)" fill="#92b386"/>
      <path id="路径_165" data-name="路径 165" d="M40.023,215.97c-8.336,4.533-6.047-.35-6.047-.35,12.544-10.561,23.415-62.754,17.308-90.723,8.7,29.64-7.189,87.671-11.261,91.073" transform="translate(29.506 -67.617)" fill="#6c8e5e"/>
      <path id="路径_166" data-name="路径 166" d="M43.859,144.135c3.747,27.733-9.424,77.731-14.107,84.651-1.369,1.082-2.137-.036-3-.051,7.774-10.507,16.716-49.4,17.1-84.6" transform="translate(42.014 -78.032)" fill="#92b386"/>
      <path id="路径_167" data-name="路径 167" d="M55.406,24.673a.638.638,0,0,0,.487-.7c-.1-.828-.359-2.268-.384-2.4-.416-2.158-1.271-4.2-1.455-6.442A21.962,21.962,0,0,1,54.521,8.1c.349-1.4,1.05-3.135.249-4.5-1.163-1.979-8.351-5.788-10.137-1.972C42.913,5.3,40.857,6.868,41.1,10.649c.23,3.585,1.846,8.639,3.994,13.617,1.7,3.941,7.935.985,10.313.407" transform="translate(24.068 0.001)" fill="#7e3e39"/>
      <path id="路径_168" data-name="路径 168" d="M55.16,5.679c-2.172,2.009-5.285,4.08-7.139,2.271a3.844,3.844,0,0,1,.109-5.856c1.745-1.428,9.348,1.44,7.03,3.585" transform="translate(21.782 -0.926)" fill="#a27564"/>
      <path id="路径_169" data-name="路径 169" d="M58.88,22.079c4.673,2.28-7.934,2.825-9.238.584s-1.065-5.615,9.238-.584" transform="translate(16.38 -10.536)" fill="#a27564"/>
      <path id="路径_170" data-name="路径 170" d="M59.443,36.253l1.073,5.426a.788.788,0,0,1-.8.984,6.792,6.792,0,0,1-3.313-.95c-1.482-.962-2.578-5.648-2.948-7.428a.826.826,0,0,1,.48-.969c1.474-.6,5.115-1.59,5.509,2.937" transform="translate(13.766 -17.751)" fill="#a27564"/>
      <path id="路径_171" data-name="路径 171" d="M70.109,406.3a1.861,1.861,0,0,0,1.839-1.592c.048-.331,1.108-8.138-5.173-11.3-5.159-2.594-10.1,1.3-11.993,3.716a1.861,1.861,0,1,0,2.932,2.292c.144-.183,3.672-4.556,7.387-2.683,3.912,1.97,3.172,7.384,3.164,7.439a1.86,1.86,0,0,0,1.844,2.13" transform="translate(1.817 -212.518)" fill="#333"/>
      <path id="路径_172" data-name="路径 172" d="M154.42,363.841a1.862,1.862,0,0,0,1.839-1.593c.048-.331,1.108-8.136-5.173-11.3-5.16-2.595-10.1,1.3-11.992,3.715a1.861,1.861,0,1,0,2.931,2.294c.145-.182,3.674-4.556,7.388-2.685,3.912,1.97,3.171,7.386,3.163,7.44a1.86,1.86,0,0,0,1.844,2.128" transform="translate(-121.16 -189.533)" fill="#333"/>
      <path id="路径_173" data-name="路径 173" d="M82.4,422.279a2.906,2.906,0,0,1-.14.266c-3.166,5.32-14.727-.8-10.153-5.45,0,0,1.822-1.853,6.523-.3,1.91.63,4.86,3.12,3.769,5.486" transform="translate(-16.409 -225.309)" fill="#ffa4b3"/>
      <path id="路径_174" data-name="路径 174" d="M153.881,375.263a2.949,2.949,0,0,0-.13.271c-2.389,5.711,9.409,11.358,10.424,4.912,0,0,.4-2.567-3.642-5.421-1.643-1.159-5.4-2.046-6.652.238" transform="translate(-135.749 -202.391)" fill="#ffa4b3"/>
      <path id="路径_175" data-name="路径 175" d="M122.806,410.79a7.48,7.48,0,0,0,2.433-.4,9.058,9.058,0,0,0,4.895-4.394,1.861,1.861,0,0,0-3.352-1.618,5.453,5.453,0,0,1-2.771,2.5,5,5,0,0,1-3.863-.534,4.735,4.735,0,0,1-2.645-2.7,5.065,5.065,0,0,1,.5-3.516,1.861,1.861,0,0,0-3.2-1.9,8.676,8.676,0,0,0-.878,6.427,8.248,8.248,0,0,0,4.552,5.011,9.627,9.627,0,0,0,4.333,1.127" transform="translate(-83.624 -215.103)" fill="#333"/>
    </g>
  </g>
</svg>
