<?xml version="1.0" encoding="UTF-8" standalone="no"?><svg xmlns="http://www.w3.org/2000/svg" xmlns:xlink="http://www.w3.org/1999/xlink" width="164.206" height="163.179" viewBox="0 0 164.206 163.179">
  <defs>
    <clipPath id="clip-path">
      <rect id="矩形_38" data-name="矩形 38" width="124.238" height="122.115" transform="translate(0 0)" fill="none"/>
    </clipPath>
  </defs>
  <g id="组_26" data-name="组 26" transform="translate(0.002 52.509) rotate(-25)">
    <g id="组_25" data-name="组 25" transform="translate(0 -0.004)" clip-path="url(#clip-path)">
      <path id="路径_197" data-name="路径 197" d="M.143,59.638C-.734,48.22,2.466,38.465,8.175,29.425c7.317-11.587,17.686-19.409,30.37-24.312,1.1-.424,2.219-.778,3.333-1.154,3.5-1.183,7.011-2.337,10.5-3.554,1.153-.4,2.184-.748,3.291.2A2.529,2.529,0,0,0,57.33.82,68.4,68.4,0,0,1,82.555,3.094c12.86,3.682,23.532,10.621,31.4,21.562a54.825,54.825,0,0,1,9.991,27.125c2.782,27.939-14.611,58.467-46.293,67.618-17.988,5.2-35.189,3.013-51-7.287C13.425,103.489,5.31,91.168,1.713,75.841A59.2,59.2,0,0,1,.142,61.583c.01-.841,0-1.682,0-1.945M63.256,4.366c-2.268.109-4.544.136-6.8.345A35.319,35.319,0,0,0,42.057,8.9,168.041,168.041,0,0,0,26.505,18.25,45.716,45.716,0,0,0,11.241,37.015,58.651,58.651,0,0,0,6.705,70.783c1.75,11.3,6.4,21.271,14.537,29.344C34.9,113.671,51.53,118.51,70.3,115.374c15.845-2.647,28.434-10.98,37.654-24.108,9.2-13.1,12.863-27.724,10.249-43.565-2.773-16.808-12.058-29.137-27.184-36.953A59.516,59.516,0,0,0,63.256,4.366" transform="translate(0 0.003)" fill="#efdb00"/>
      <path id="路径_198" data-name="路径 198" d="M248.46,512.06a13.328,13.328,0,0,1-1.1-1.665,2.181,2.181,0,0,1,.747-2.689,2.1,2.1,0,0,1,2.584-.036,9.008,9.008,0,0,1,1.118,1.006,34.2,34.2,0,0,0,23.083,9.883,32.743,32.743,0,0,0,12.35-2.1,43.342,43.342,0,0,0,13.829-8.117,27.576,27.576,0,0,0,6.242-7.53,11.858,11.858,0,0,1,1.349-2.12,2.894,2.894,0,0,1,4.958.754,7.3,7.3,0,0,1,.563,2.186,58.584,58.584,0,0,1-1.062,20.539c-3.085,12.286-10.984,20.142-22.78,24.2a33.978,33.978,0,0,1-20.824.772,28.081,28.081,0,0,1-15.21-10.619,30.8,30.8,0,0,1-5.01-10.111c-.828-2.989-1.441-6.044-2.019-9.094-.348-1.839-.379-3.71,1.181-5.261m60.072-3.731c-.856.77-1.477,1.332-2.1,1.891a52.429,52.429,0,0,1-16.651,10.26,37.443,37.443,0,0,1-23.521,1.237,42.775,42.775,0,0,1-11.24-5.03c-.538-.333-1.121-.595-1.9-1a17.976,17.976,0,0,0,.172,2.261c.477,2.218.925,4.448,1.547,6.627a26.382,26.382,0,0,0,4.377,8.751,22.182,22.182,0,0,0,14.019,8.7,30.557,30.557,0,0,0,20.258-3.339,26.931,26.931,0,0,0,13.418-15.711,39.338,39.338,0,0,0,1.941-13.663,4.789,4.789,0,0,0-.319-.98" transform="translate(-219.201 -441.453)" fill="#efdb00"/>
      <path id="路径_199" data-name="路径 199" d="M380.088,306.516a6.118,6.118,0,0,1-2.152,5,4.67,4.67,0,0,1-6.014.216c-2.078-1.573-2.622-3.823-2.437-6.255a5.618,5.618,0,0,1,3.64-4.985,2.8,2.8,0,0,1,3.059.189c.466.349,1.01.6,1.466.958a6.165,6.165,0,0,1,2.438,4.877" transform="translate(-327.76 -266.262)" fill="#efdb00"/>
      <path id="路径_200" data-name="路径 200" d="M635.829,309.493a5.166,5.166,0,0,1,2.319-4.488,3.681,3.681,0,0,1,4.951.613,12.206,12.206,0,0,1,1.207,1.268,11.579,11.579,0,0,1,1.393,2.351,4.235,4.235,0,0,1-1.015,4.85,4.651,4.651,0,0,1-5.1,1.089,5.784,5.784,0,0,1-3.751-5.683" transform="translate(-564.079 -269.973)" fill="#efdb00"/>
    </g>
  </g>
</svg>
