<?xml version="1.0" encoding="UTF-8" standalone="no"?><svg xmlns="http://www.w3.org/2000/svg" xmlns:xlink="http://www.w3.org/1999/xlink" width="178.68" height="144.099" viewBox="0 0 178.68 144.099">
  <defs>
    <clipPath id="clip-path">
      <rect id="矩形_31" data-name="矩形 31" width="83.142" height="158.249" fill="none"/>
    </clipPath>
    <clipPath id="clip-path-3">
      <rect id="矩形_28" data-name="矩形 28" width="40.06" height="123.657" fill="none"/>
    </clipPath>
    <clipPath id="clip-path-4">
      <rect id="矩形_29" data-name="矩形 29" width="26.614" height="61.505" fill="none"/>
    </clipPath>
  </defs>
  <g id="组_22" data-name="组 22" transform="matrix(0.438, 0.899, -0.899, 0.438, 142.233, 0)">
    <g id="组_21" data-name="组 21" clip-path="url(#clip-path)">
      <g id="组_20" data-name="组 20" transform="translate(0 0)">
        <g id="组_19" data-name="组 19" clip-path="url(#clip-path)">
          <path id="路径_176" data-name="路径 176" d="M174.764,1071.444c4.057,2.115,7.484,4.377,11.236,5.742,5.133,1.867,9.587.229,11.932-3.676a9.829,9.829,0,0,0,.433-9.6A20.964,20.964,0,0,0,187,1053.158a2.457,2.457,0,0,1-1.772-2.8c.213-5.7.316-11.4.439-16.261l-18.913-.255-.229-1.027c-.044.783-.114,1.565-.128,2.349-.087,4.97-.217,9.94-.2,14.909a2.459,2.459,0,0,1-1.885,2.741,20.4,20.4,0,0,0-10.579,8.457,15.338,15.338,0,0,0-2.11,5.541,9.14,9.14,0,0,0,9.316,10.52,20.089,20.089,0,0,0,12.444-4.752c.632-.5,1.246-1.022,1.381-1.133" transform="translate(-134.923 -919.708)" fill="#f4dcbd"/>
          <path id="路径_177" data-name="路径 177" d="M401.872,1386.711c.632-.5,1.246-1.021,1.381-1.133,4.057,2.115,7.484,4.377,11.236,5.742.217.079.432.149.647.216a10.574,10.574,0,0,1-7.328-.216,50.57,50.57,0,0,1-7.309-3.591q.7-.483,1.372-1.018" transform="translate(-356.641 -1233.842)" fill="#ead2a3"/>
          <path id="路径_178" data-name="路径 178" d="M152.449,1066.813a15.341,15.341,0,0,1,2.11-5.541,20.4,20.4,0,0,1,10.579-8.457,2.459,2.459,0,0,0,1.885-2.742c-.013-4.969.118-9.939.2-14.909.014-.784.084-1.566.128-2.349l.229,1.027,6.38.086c-.026.412-.049.823-.056,1.235-.087,4.97-.218,9.94-.2,14.909a2.459,2.459,0,0,1-1.885,2.742,20.4,20.4,0,0,0-10.579,8.457,15.338,15.338,0,0,0-2.11,5.541,9.06,9.06,0,0,0,6.363,10.1,18.165,18.165,0,0,1-3.728.423,9.14,9.14,0,0,1-9.316-10.52" transform="translate(-135.658 -919.711)" fill="#ead2a3"/>
          <path id="路径_179" data-name="路径 179" d="M9.265,37.935c-1.375,12.474,2.1,25.314,8.47,36.185,7.093,12.1,18.051,23.27,18.1,37.3.014,3.839-.523,8.435,2.519,10.778,1.682,1.3,3.967,1.412,6.09,1.4a95.167,95.167,0,0,0,12.8-.921,10.393,10.393,0,0,0,4.594-1.443c4.136-2.89,2.5-9.164,2.149-14.2-.52-7.5,2.951-14.735,7.257-20.9s9.532-11.7,13.309-18.2c8.206-14.131,9.379-36.118-.238-50.085C74.461,3.529,50.406-3.036,34.629,3.007c-12.951,4.96-22.191,17.556-24.8,31.177q-.358,1.868-.564,3.752" transform="translate(-7.985 -0.679)" fill="#f6a525"/>
          <g id="组_15" data-name="组 15" transform="translate(0 0)" opacity="0.74">
            <g id="组_14" data-name="组 14">
              <g id="组_13" data-name="组 13" clip-path="url(#clip-path-3)">
                <path id="路径_180" data-name="路径 180" d="M.343,37.258A45.2,45.2,0,0,1,4.73,22.331C10.805,10.164,25.725-1.689,40.06.2,27.21,5.278,16.289,12.677,10.7,25.95,8.432,31.332,7.311,37.7,9.97,42.9c4.078,7.974,14.771,9.68,21.268,15.844,6.558,6.222,7.971,16.2,7.094,25.2s-3.633,17.78-3.868,26.817c-.117,4.494.954,9.82,5.07,11.627-3.294,2.9-8.828.459-10.954-3.377s-2.068-8.448-2.788-12.775C23.306,91.293,11.546,79.8,5.136,66.083A53.919,53.919,0,0,1,.343,37.258" transform="translate(0 0.002)" fill="#e88321"/>
              </g>
            </g>
          </g>
          <path id="路径_181" data-name="路径 181" d="M389.934,24.483C398.147,27.209,404.7,33.9,408.4,41.717s4.771,16.688,4.323,25.33c-.543,10.48-4.485,22.307-14.281,26.067-6.948,2.667-8.095,40.337-14.355,36.311,6.791,4.133,6.836-31.864,13.806-28.04,1.9,1.041,4.165,2.09,6.129,1.184,2.112-.974,2.689-3.618,3.546-5.78s3.186-4.383,5.211-3.24c1.585.894,7.328-18.043,7.622-19.767a56.533,56.533,0,0,0-.688-22.338c-3.319-14.133-13.2-29.153-29.78-26.962" transform="translate(-342.025 -21.611)" fill="#f9c35c"/>
          <g id="组_18" data-name="组 18" transform="translate(43.738 15.735)" style="mix-blend-mode: multiply;isolation: isolate">
            <g id="组_17" data-name="组 17">
              <g id="组_16" data-name="组 16" clip-path="url(#clip-path-4)">
                <path id="路径_182" data-name="路径 182" d="M601.72,412.372c-.329-.263-.266-.809-.147-1.147a3.49,3.49,0,0,1,2.272-2.112.973.973,0,0,1,.828.108c.384.259.168,1.01,0,1.31a3.842,3.842,0,0,1-.262.41,3.727,3.727,0,0,1-1.7,1.461.97.97,0,0,1-.993-.031" transform="translate(-579.346 -380.006)" fill="#f8af4a"/>
                <path id="路径_183" data-name="路径 183" d="M583.159,491.6c-.18-.038-.2-.2-.167-.359-.134-.4.578-1.2.957-1.076a.47.47,0,0,1,.247-.028c.388.084.069.665-.048.832-.19.268-.608.711-.988.63" transform="translate(-562.871 -452.192)" fill="#f8af4a"/>
                <path id="路径_184" data-name="路径 184" d="M540.734,212.59c-.323-.191-.272-.665-.208-.961a3.386,3.386,0,0,1,.814-1.375,2.873,2.873,0,0,1,2.389-1.064.733.733,0,0,1,.12.044c.495.015.892.27.844.846a3.249,3.249,0,0,1-1.563,2.138,2.436,2.436,0,0,1-2.4.372" transform="translate(-525.028 -201.994)" fill="#f8af4a"/>
                <path id="路径_185" data-name="路径 185" d="M477.866,568.209a.271.271,0,0,1-.109-.1c-.333-.357.588-1.412.988-1.216a.873.873,0,0,1,.218.123c.4.353-.644,1.466-1.1,1.19" transform="translate(-469.113 -520.529)" fill="#f8af4a"/>
                <path id="路径_186" data-name="路径 186" d="M467.859,614.841c-.759-.2-.789-.951-.59-1.594a1.941,1.941,0,0,1,.472-1.4,4.024,4.024,0,0,1,2.183-1.485c.714-.2,1.5-.089,1.578.776a3.576,3.576,0,0,1-1.331,2.592c-.566.527-1.465,1.335-2.311,1.109" transform="translate(-459.743 -559.183)" fill="#f8af4a"/>
                <path id="路径_187" data-name="路径 187" d="M399.57,693.512c-.369-.078-.055-.62.045-.777a1.951,1.951,0,0,1,.576-.554c.164-.108.628-.235.566.135a1.575,1.575,0,0,1-.408.784c-.163.192-.5.472-.78.412" transform="translate(-399.395 -632.015)" fill="#f8af4a"/>
                <path id="路径_188" data-name="路径 188" d="M421.44,146.395c-.4-.447-.124-1.1.215-1.54a1.272,1.272,0,0,1,.2-.281,2.71,2.71,0,0,1,.566-.38,3.014,3.014,0,0,1,.908-.364c.106-.032.212-.067.318-.1.391-.114,1.205-.052,1.449.335.44.7-.566,1.629-1.086,1.978a4.112,4.112,0,0,1-1.408.563,1.224,1.224,0,0,1-1.157-.214" transform="translate(-418.849 -143.682)" fill="#f8af4a"/>
                <path id="路径_189" data-name="路径 189" d="M483.487,152.416l-.112-.092c-.3-.245.165-.846.325-1.018.209-.227.658-.625.989-.408l.124.08c.484.316-.79,1.877-1.326,1.438" transform="translate(-474.091 -150.052)" fill="#f8af4a"/>
                <path id="路径_190" data-name="路径 190" d="M602.783,282.491a1.746,1.746,0,0,1-.513.012c-.6-.085-.6-.782-.494-1.222a4.491,4.491,0,0,1,1.242-1.852c.645-.656,2.432-2.106,3.091-.759.251.514-.25,1.438-.52,1.858a5.6,5.6,0,0,1-1.239,1.341,2.215,2.215,0,0,1-1.567.622" transform="translate(-579.563 -263.394)" fill="#f8af4a"/>
              </g>
            </g>
          </g>
        </g>
      </g>
    </g>
  </g>
</svg>
