<?xml version="1.0" encoding="UTF-8" standalone="no"?><svg xmlns="http://www.w3.org/2000/svg" xmlns:xlink="http://www.w3.org/1999/xlink" width="197.052" height="229.531" viewBox="0 0 197.052 229.531">
  <defs>
    <clipPath id="clip-path">
      <rect id="矩形_26" data-name="矩形 26" width="121.421" height="195.742" fill="none"/>
    </clipPath>
  </defs>
  <g id="组_10" data-name="组 10" transform="matrix(0.891, -0.454, 0.454, 0.891, 0, 55.124)">
    <g id="组_9" data-name="组 9" clip-path="url(#clip-path)">
      <path id="路径_111" data-name="路径 111" d="M111.574,235.632s-62.223,21.227-97.23-69.543,24.7-110.156,24.7-110.156l-1.9,11.5S20.5,184.02,111.843,222.564l12.089,5.861s-.538,5.335-12.357,7.207" transform="translate(-3.34 -42.046)" fill="#ecc730"/>
      <path id="路径_112" data-name="路径 112" d="M37.1,93.861s7.709,106.691,74.565,157.365a23.075,23.075,0,0,1-6.964,1.747c-8.332,1.024-19.82-2.423-42.812-15.756C26.117,216.474,3.6,147.115,28.312,91.1Z" transform="translate(5.314 -68.478)" fill="#f9cc5d"/>
      <path id="路径_113" data-name="路径 113" d="M325.193,26.386s.061-16.527,2.752-17.741-19.521-9.78-21.26-6.613,3.867,4.17,4.148,8.341-2.077,9.893-4.25,11.124,6.256,7.462,8.129,6.176,8.207,2.193,10.482-1.286" transform="translate(-282.782 -1.002)" fill="#454031"/>
      <path id="路径_114" data-name="路径 114" d="M4.182,730.994s-4.777.69-4.12,2.781A34.821,34.821,0,0,1,.734,740.5a2.076,2.076,0,0,0,2.426,1.984c1.643-.289,4-1.505,6.664-5.344a2.091,2.091,0,0,0-.145-2.587c-1.391-1.558-3.88-3.995-5.5-3.557" transform="translate(111.217 -549.461)" fill="#454031"/>
      <path id="路径_115" data-name="路径 115" d="M50.686,107.911s-32.064,54.163,6.334,120S140.4,272.156,140.4,272.156s-46.447,3.081-76.238-45.539S45.5,109.188,50.686,107.911" transform="translate(-28.445 -81.118)" fill="#f4ce2f"/>
      <path id="路径_116" data-name="路径 116" d="M440.633,266.643c-.21-1.051-.982-1.781-1.724-1.633s-1.172,1.121-.962,2.171.982,1.781,1.724,1.633,1.172-1.12.962-2.171" transform="translate(-427.988 -199.198)" fill="#e59935"/>
      <path id="路径_117" data-name="路径 117" d="M411.781,323.01c-.115-.574-.536-.973-.941-.892s-.64.612-.525,1.185.536.973.941.891.64-.612.525-1.185" transform="translate(-392.257 -242.133)" fill="#e59935"/>
      <path id="路径_118" data-name="路径 118" d="M402.484,281.148c.135-1.018-.306-1.916-.984-2.006s-1.338.662-1.473,1.68.306,1.916.985,2.006,1.338-.662,1.473-1.68" transform="translate(-380.402 -209.83)" fill="#e59935"/>
      <path id="路径_119" data-name="路径 119" d="M402.859,241.441c.234-1.1-.073-2.1-.685-2.23s-1.3.658-1.532,1.76.072,2.1.685,2.23,1.3-.658,1.532-1.759" transform="translate(-380.971 -179.808)" fill="#e59935"/>
      <path id="路径_120" data-name="路径 120" d="M428.4,215.789c.2-.932-.082-1.78-.626-1.9s-1.144.546-1.342,1.478.082,1.78.625,1.9,1.144-.546,1.342-1.478" transform="translate(-412.9 -160.777)" fill="#e59935"/>
      <path id="路径_121" data-name="路径 121" d="M435.087,308.875c-.07-.508-.4-.883-.741-.836s-.557.5-.487,1.006.4.883.741.836.557-.5.487-1.006" transform="translate(-421.396 -231.555)" fill="#e59935"/>
      <path id="路径_122" data-name="路径 122" d="M408.274,377.929c.624-.282,1.472.249,1.894,1.185s.259,1.923-.365,2.2-1.472-.249-1.894-1.185-.259-1.922.365-2.2" transform="translate(-390.202 -284.039)" fill="#e59935"/>
      <path id="路径_123" data-name="路径 123" d="M410.254,350.967a.62.62,0,1,0-.826.293.62.62,0,0,0,.826-.293" transform="translate(-390.46 -263.162)" fill="#e59935"/>
      <path id="路径_124" data-name="路径 124" d="M391.056,177.978c-.367.773-.415,1.518-.106,1.665s.858-.36,1.225-1.133.415-1.518.106-1.665-.858.36-1.225,1.133" transform="translate(-368.081 -132.918)" fill="#e59935"/>
      <path id="路径_125" data-name="路径 125" d="M394.09,141.131c.178-.661.054-1.269-.276-1.358s-.743.375-.92,1.036-.054,1.269.276,1.358.743-.375.92-1.036" transform="translate(-370.28 -105.061)" fill="#e59935"/>
      <path id="路径_126" data-name="路径 126" d="M365.018,232.833c.063-1.025-.3-1.881-.813-1.913s-.979.773-1.043,1.8.3,1.881.813,1.913.979-.773,1.043-1.8" transform="translate(-333.77 -173.586)" fill="#e59935"/>
      <path id="路径_127" data-name="路径 127" d="M375.377,205.732c.222-.826.135-1.568-.2-1.657s-.778.508-1,1.335-.135,1.568.2,1.657.779-.509,1-1.335" transform="translate(-346.953 -153.4)" fill="#e59935"/>
      <path id="路径_128" data-name="路径 128" d="M345.764,605.995a1.731,1.731,0,0,0-2.372-.1c-.462.6-.149,1.615.7,2.269a1.731,1.731,0,0,0,2.372.1c.462-.6.149-1.615-.7-2.269" transform="translate(-310.462 -455.143)" fill="#e59935"/>
      <path id="路径_129" data-name="路径 129" d="M368.492,528.875c-.54-.925-1.507-1.367-2.16-.986a1.731,1.731,0,0,0-.206,2.366c.54.925,1.507,1.367,2.16.985a1.731,1.731,0,0,0,.206-2.365" transform="translate(-338.239 -396.72)" fill="#e59935"/>
      <path id="路径_130" data-name="路径 130" d="M289.857,629.359a.945.945,0,0,0-1.3-.055c-.252.327-.082.881.381,1.239a.945.945,0,0,0,1.3.055c.252-.327.082-.882-.381-1.239" transform="translate(-240.551 -472.884)" fill="#e59935"/>
      <path id="路径_131" data-name="路径 131" d="M308.726,591.344c-.566-.857-1.488-1.245-2.059-.868s-.575,1.378-.009,2.234,1.488,1.245,2.059.868.575-1.378.009-2.234" transform="translate(-263.76 -443.762)" fill="#e59935"/>
      <path id="路径_132" data-name="路径 132" d="M334.858,561.5c-.546-.985-1.432-1.537-1.98-1.234s-.548,1.348,0,2.333,1.433,1.538,1.98,1.234.548-1.348,0-2.333" transform="translate(-296.393 -421.095)" fill="#e59935"/>
      <path id="路径_133" data-name="路径 133" d="M371.787,558.924c-.462-.833-1.23-1.29-1.716-1.02s-.505,1.163-.043,2,1.23,1.29,1.716,1.02.505-1.163.043-2" transform="translate(-342.489 -419.327)" fill="#e59935"/>
      <path id="路径_134" data-name="路径 134" d="M317.176,633.912c-.387-.338-.883-.4-1.108-.145s-.094.74.292,1.078.882.4,1.108.145.094-.74-.292-1.078" transform="translate(-274.606 -476.294)" fill="#e59935"/>
      <path id="路径_135" data-name="路径 135" d="M272.444,649.2a.62.62,0,1,0-.431.763.62.62,0,0,0,.431-.763" transform="translate(-218.388 -487.671)" fill="#e59935"/>
      <path id="路径_136" data-name="路径 136" d="M369.4,507.185c.229.824.683,1.418,1.013,1.326s.411-.834.181-1.659-.683-1.418-1.013-1.326-.411.834-.181,1.659" transform="translate(-340.992 -380.005)" fill="#e59935"/>
      <path id="路径_137" data-name="路径 137" d="M396.273,480.05c-.3-.615-.791-.993-1.1-.843s-.314.77-.015,1.386.792.993,1.1.843.315-.77.015-1.385" transform="translate(-373.131 -360.202)" fill="#e59935"/>
      <path id="路径_138" data-name="路径 138" d="M426.919,441.673c-.624-.815-1.461-1.222-1.868-.91s-.232,1.226.393,2.041,1.461,1.222,1.869.91.231-1.226-.393-2.041" transform="translate(-411.59 -331.25)" fill="#e59935"/>
      <path id="路径_139" data-name="路径 139" d="M338.971,516.462c-.374-.769-.927-1.272-1.235-1.122s-.254.895.12,1.664.927,1.271,1.235,1.122.254-.895-.12-1.664" transform="translate(-301.676 -387.369)" fill="#e59935"/>
      <path id="路径_140" data-name="路径 140" d="M311.018,32.285l-3.882,17.522s1.921.12,4.439.086,4.3,1.795,6.043-1.372c0,0,.373-15.992,2.752-17.741Z" transform="translate(-275.206 -23.138)" fill="#544c39"/>
      <path id="路径_141" data-name="路径 141" d="M326.123,8.517a27.432,27.432,0,0,1-7.851.63,30.885,30.885,0,0,1-8.392-1.815s-6.86-4.656-2.78-6.885,18.807,4.5,20.1,6.131.934,1.13-1.074,1.939" transform="translate(-282.461 0.001)" fill="#333"/>
      <path id="路径_142" data-name="路径 142" d="M125.633,285.823c-1.342-1.067-2.628-2.2-3.893-3.348-.643-.562-1.261-1.154-1.887-1.734s-1.248-1.164-1.851-1.77l-1.828-1.79-1.785-1.832c-1.206-1.2-2.337-2.481-3.492-3.732a178.533,178.533,0,0,1-12.829-15.838c-.97-1.393-1.98-2.756-2.915-4.171l-2.792-4.251c-.478-.7-.915-1.426-1.344-2.157l-1.3-2.182c-.869-1.454-1.757-2.9-2.529-4.405l-2.425-4.462c-.783-1.5-1.491-3.039-2.24-4.556-1.526-3.025-2.855-6.126-4.116-9.271-2.574-6.267-4.771-12.709-6.8-19.2q-1.536-4.867-2.906-9.789c-.458-1.64-.9-3.285-1.331-4.932s-.875-3.293-1.283-4.946c-.837-3.3-1.586-6.628-2.312-9.957s-1.384-6.675-1.957-10.034c-.6-3.356-1.079-6.731-1.427-10.121-.188-1.7-.292-3.395-.358-5.1a35.119,35.119,0,0,1,.15-5.117,35.376,35.376,0,0,0-.712,5.107c-.1,1.719-.143,3.445-.11,5.167.044,3.447.311,6.884.647,10.311.74,6.846,1.836,13.65,3.248,20.386,1.357,6.75,3.093,13.417,4.979,20.044,1.958,6.607,4.157,13.15,6.73,19.576,1.313,3.2,2.712,6.385,4.3,9.462.779,1.546,1.518,3.113,2.331,4.641l2.546,4.526A150.358,150.358,0,0,0,109.6,272.884c1.26,1.177,2.494,2.376,3.8,3.5l1.934,1.709,1.991,1.643a86.965,86.965,0,0,0,8.312,6.086" transform="translate(-18.947 -106.088)" fill="#efce43"/>
      <path id="路径_143" data-name="路径 143" d="M75.406,129.609a111.945,111.945,0,0,0-2.334,10.979c-.623,3.7-1.074,7.419-1.44,11.154a164.423,164.423,0,0,0-.523,22.529,146.048,146.048,0,0,0,2.767,22.441c.761,3.7,1.681,7.375,2.786,11,1.066,3.634,2.347,7.2,3.756,10.725a98.805,98.805,0,0,0,11.124,19.851c1.085,1.557,2.291,3.021,3.444,4.523,1.22,1.448,2.4,2.929,3.68,4.323,1.241,1.428,2.551,2.791,3.855,4.158,1.346,1.325,2.674,2.669,4.071,3.937a135.877,135.877,0,0,0,17.739,13.938c3.144,2.056,6.347,4.014,9.636,5.813a100.751,100.751,0,0,0,10.1,4.9c-1.651-.875-3.257-1.825-4.848-2.8s-3.172-1.955-4.724-2.983c-3.108-2.048-6.16-4.171-9.114-6.421q-4.453-3.342-8.654-6.982c-1.4-1.212-2.772-2.452-4.14-3.7-1.34-1.273-2.692-2.533-3.982-3.855-2.6-2.62-5.108-5.329-7.482-8.143-1.213-1.386-2.326-2.852-3.478-4.285-1.083-1.485-2.221-2.93-3.234-4.462a105.147,105.147,0,0,1-5.829-9.324c-.863-1.615-1.742-3.222-2.5-4.887-.824-1.636-1.506-3.333-2.227-5.013-1.386-3.394-2.66-6.851-3.722-10.373-1.115-3.507-1.993-7.086-2.825-10.675s-1.469-7.228-2.035-10.877q-.784-5.484-1.28-11.015c-.316-3.688-.475-7.389-.585-11.1s-.087-7.42.036-11.134c.1-3.715.329-7.428.644-11.139.148-1.857.348-3.709.562-5.561s.445-3.7.756-5.547" transform="translate(-40.262 -97.429)" fill="#efce43"/>
      <path id="路径_144" data-name="路径 144" d="M293.016,268.031a3.793,3.793,0,0,0,2.751-1.126c2.658-2.658,2.016-9.208,1.934-9.947a1.008,1.008,0,0,0-2,.222c.192,1.74.322,6.624-1.357,8.3a1.841,1.841,0,0,1-1.62.519,2.739,2.739,0,0,1-1.931-1.078c-1.579-2-1.452-6.257-1.27-7.728a1.007,1.007,0,0,0-2-.249c-.032.25-.737,6.151,1.686,9.224A4.723,4.723,0,0,0,292.5,268a4.643,4.643,0,0,0,.517.029" transform="translate(-247.766 -192.486)" fill="#333"/>
      <path id="路径_145" data-name="路径 145" d="M357.455,268.031a3.793,3.793,0,0,0,2.751-1.126c2.658-2.658,2.016-9.208,1.934-9.947a1.008,1.008,0,0,0-2,.222c.192,1.74.322,6.624-1.357,8.3a1.842,1.842,0,0,1-1.62.519,2.739,2.739,0,0,1-1.931-1.078c-1.579-2-1.452-6.257-1.27-7.728a1.007,1.007,0,0,0-2-.249c-.031.25-.737,6.151,1.686,9.224A4.723,4.723,0,0,0,356.938,268a4.644,4.644,0,0,0,.517.029" transform="translate(-328.204 -192.486)" fill="#333"/>
      <path id="路径_146" data-name="路径 146" d="M370.086,308.59a2.123,2.123,0,0,0,0-.224c-.324-4.6-10.071-4.407-8.586.225,0,0,.592,1.844,4.242,2.388,1.483.221,4.281-.448,4.348-2.389" transform="translate(-338.382 -229.284)" fill="#ffa4b3"/>
      <path id="路径_147" data-name="路径 147" d="M290.961,306.679a2.235,2.235,0,0,0-.057-.227c-1.418-4.614-11.305-2.111-8.7,2.258,0,0,1.039,1.74,4.887,1.431,1.563-.125,4.258-1.469,3.867-3.462" transform="translate(-239.537 -228.511)" fill="#ffa4b3"/>
      <path id="路径_148" data-name="路径 148" d="M359.814,384.716a21.764,21.764,0,0,0,3.832-.348c5.367-.957,10.2-3.764,12.321-7.152a1.007,1.007,0,0,0-1.708-1.068c-1.8,2.881-6.209,5.388-10.966,6.236-4.793.857-9.183-.035-12.367-2.5-7.214-5.589.167-17.871.242-17.994a1.008,1.008,0,0,0-1.719-1.052c-.347.566-8.4,13.945.242,20.639a16.323,16.323,0,0,0,10.123,3.242" transform="translate(-340.533 -270.883)" fill="#333"/>
      <path id="路径_149" data-name="路径 149" d="M215.726,387.793a10.961,10.961,0,0,0,8.019-3.2,6.652,6.652,0,0,0,1.995-4.143,6.27,6.27,0,0,0-2.15-4.761c-3.007-2.831-7.594-4.273-10.783-5.111a1.008,1.008,0,0,0-.512,1.949c2.976.781,7.24,2.112,9.913,4.628a4.283,4.283,0,0,1,1.519,3.2,4.7,4.7,0,0,1-1.437,2.846,9.282,9.282,0,0,1-7.752,2.517,11.559,11.559,0,0,1-8.568-4.966,1.008,1.008,0,0,0-1.707,1.072,14.029,14.029,0,0,0,11.462,5.97" transform="translate(-155.002 -278.547)" fill="#333"/>
      <path id="路径_150" data-name="路径 150" d="M268.332,391.878s-2.837-4.774-4.156-3.774,1.752,4.662,2.128,5.089-.085.678-.552.406a13.379,13.379,0,0,0-4.171-1.9c-.925-.171-2.066.416-1.624,1.516.471,1.173,2.048,1.576,3.13,1.888a8.4,8.4,0,0,1,2.506.9c.811.577.152.537-.493.613s-3,.164-3.606.848a.842.842,0,0,0,.387,1.474c.558.117,1.513-.263,3.493-.253s4.847,1.888,7.122.508c1.418-.86,1.382-2.483.879-3.874a14.837,14.837,0,0,1-.76-2.2,8.718,8.718,0,0,1-.125-2.509c.043-.455.385-1.1.1-1.537-.4-.609-1.146-.435-1.674-.11a2,2,0,0,0-1.02,1.547,5,5,0,0,1-.281,1.8c-.327.519-1.057-.05-1.283-.43" transform="translate(-216.789 -291.64)" fill="#fff"/>
      <path id="路径_151" data-name="路径 151" d="M321.968,400.935s2.908-4.917,4.261-3.887-1.8,4.8-2.182,5.242.087.7.566.418a13.684,13.684,0,0,1,4.277-1.954c.948-.176,2.119.428,1.665,1.562-.483,1.208-2.1,1.623-3.209,1.945a8.591,8.591,0,0,0-2.569.923c-.831.594-.156.553.5.632s3.071.169,3.7.873a.869.869,0,0,1-.4,1.518c-.572.121-1.551-.271-3.582-.261s-4.969,1.945-7.3.523c-1.454-.886-1.417-2.557-.9-3.99a15.32,15.32,0,0,0,.779-2.262,9.027,9.027,0,0,0,.129-2.585c-.044-.469-.395-1.136-.1-1.583.408-.627,1.174-.448,1.716-.114a2.065,2.065,0,0,1,1.046,1.594,5.17,5.17,0,0,0,.288,1.849c.335.535,1.084-.051,1.315-.443" transform="translate(-287.811 -298.36)" fill="#fff"/>
      <path id="路径_152" data-name="路径 152" d="M324.775,318.016a7.469,7.469,0,0,0,4.981-2.332,1.007,1.007,0,0,0-1.489-1.357A5.486,5.486,0,0,1,324.775,316h-.021a4.315,4.315,0,0,1-3.143-1.669,1.007,1.007,0,0,0-1.5,1.347,6.222,6.222,0,0,0,4.647,2.336Z" transform="translate(-288.012 -236.038)" fill="#333"/>
    </g>
  </g>
</svg>
