<?xml version="1.0" encoding="UTF-8" standalone="no"?><svg xmlns="http://www.w3.org/2000/svg" xmlns:xlink="http://www.w3.org/1999/xlink" width="131.252" height="135.364" viewBox="0 0 131.252 135.364">
  <defs>
    <clipPath id="clip-path">
      <rect id="矩形_23" data-name="矩形 23" width="99.609" height="106.758" transform="translate(0 0)" fill="none"/>
    </clipPath>
  </defs>
  <g id="组_4" data-name="组 4" transform="translate(38.259) rotate(21)">
    <g id="组_3" data-name="组 3" clip-path="url(#clip-path)">
      <path id="路径_31" data-name="路径 31" d="M42.116,5.005c.169.007.2.011.285.02a4.774,4.774,0,0,1,1.762.561s.3.1.517.158c2.2.6,4.471.931,6.669,1.505a14.939,14.939,0,0,1,6.23,3.447c1.813-3.794,5.473-6.619,9.447-8.273A21.626,21.626,0,0,1,75.146.772h.145c.191,0,.382-.008.572-.027A6.354,6.354,0,0,1,76.988.211a3.774,3.774,0,0,1,4.34,1.316,3.461,3.461,0,0,1,.5,2.281,6.8,6.8,0,0,1,.3,1.047,3.832,3.832,0,0,1-2.846,4.388,5.2,5.2,0,0,1-5.032-1.321,15.115,15.115,0,0,0-6.48,2.085,9.3,9.3,0,0,0-4.358,5.151,19.188,19.188,0,0,0-.578,2.463s.774.089,1.485.225a13.5,13.5,0,0,1,6.108,2.809s.642-.238,1.245-.4a6.384,6.384,0,0,1,3.157-.14,9.065,9.065,0,0,1,4.657,2.792c1.089.342,2.231.54,3.351.823,4.646,1.176,9.35,2.75,12.852,5.949a9.918,9.918,0,0,1,3.1,5.438,33.979,33.979,0,0,1,.195,9.358,52.288,52.288,0,0,0-.039,5.655c.337,10.557.786,21.072.627,31.684a40.774,40.774,0,0,1-1.239,10.729,8.073,8.073,0,0,1-2.991,4.711,33.093,33.093,0,0,1-4.187,2.2,76.629,76.629,0,0,1-22.215,6.824,73.78,73.78,0,0,1-11.335.447c-.852-.015-1.705-.036-2.554-.108L54.8,106.6a62.749,62.749,0,0,1-15.6-3.623,66.255,66.255,0,0,1-11.5-5.592s-.482.257-.907.473A14.19,14.19,0,0,1,16.8,98.993a16.691,16.691,0,0,1-7.977-5.258c-3.024-3.424-5.354-7.646-5.093-12.4a11.518,11.518,0,0,1,.434-2.63S3.89,78.529,3.7,78.4a8.624,8.624,0,0,1-3.068-10.2,12.291,12.291,0,0,1,2.684-3.605,3.809,3.809,0,0,1,2.9-1.373,3.637,3.637,0,0,1,2.723,1.7,11.784,11.784,0,0,1,2.85-3.828,20.032,20.032,0,0,1,4.36-2.921,3.482,3.482,0,0,1,4.433,1.273c-.153-.594-.35-1.176-.5-1.772-1.233-5.01-.807-10.354-.3-15.507a37.538,37.538,0,0,1,1.016-6.8A10.654,10.654,0,0,1,21.349,34c.02-.146.024-.159.038-.229A8,8,0,0,1,24,29.789a23.616,23.616,0,0,1,8.549-4.7,61.472,61.472,0,0,1,7.583-2.062l.273-.06c.027-.057.049-.1.049-.1a7.837,7.837,0,0,1,5.223-3.98s-.548-.333-1-.628c-2.872-1.869-5.49-4.394-6.275-7.828A4.693,4.693,0,0,1,39.237,6.2,3.764,3.764,0,0,1,42.063,5h.053M20.842,66.455a17.574,17.574,0,0,1-1.882,4.34s.582.153,1.031.305a11.7,11.7,0,0,1,1.125.447q-.16-2.5-.262-4.993s.01-.184-.012-.1" fill="#fff" fill-rule="evenodd"/>
      <path id="路径_32" data-name="路径 32" d="M66.962,102.006a65.492,65.492,0,0,0,17-4.268,66.638,66.638,0,0,0,9.023-4.332,4.926,4.926,0,0,0,.863-1.513c.8-2.129,1.054-4.336,1.158-9.921l.1-5.331-.679.548a42.922,42.922,0,0,1-11.631,6.278c-4.845,1.669-6.373,1.806-6.23.562.056-.484.213-.6,1.272-.919,8.151-2.478,12.294-4.52,15.931-7.853l1.348-1.236L95,68.512c-.062-3.03-.158-5.555-.214-5.61a9.555,9.555,0,0,0-2.008,1.021c-3.928,2.311-10.265,5.154-11.49,5.154a.8.8,0,0,1-.584-1.447,9.787,9.787,0,0,1,1.964-.854,77.662,77.662,0,0,0,10.109-4.942L94.832,60.6l-.117-3.563c-.065-1.96-.144-3.6-.176-3.633s-.242.287-.464.724a4.935,4.935,0,0,1-2.54,2.265c-1.469.485-3.42-.315-5.1-2.09-.978-1.034-1.419-1.811-2.579-4.549-.708-1.67-2.032-2.784-3.014-2.538-1.113.279-2.262,2.128-2.919,4.7-.589,2.3-.519,5.167.24,9.918.779,4.871.849,7.027.263,8.145-.688,1.31-1.283,1.623-3.073,1.617-2.443-.008-3.967-1.039-5.111-3.456-1.115-2.357-1.385-4.322-1.536-11.174-.074-3.4-.207-6.248-.295-6.336-.243-.242-.969.77-2.581,3.6a21.214,21.214,0,0,1-2.34,3.424c-.756.741-1,.86-1.725.856-1.188-.008-1.739-.453-3.306-2.675-2.582-3.66-5.657-6.282-7.368-6.282-.863,0-1.848,1.08-2.251,2.468-.279.959-.32,2.058-.268,7.236.059,5.97.05,6.131-.4,7.248a4.9,4.9,0,0,1-2.766,2.786,10.647,10.647,0,0,1-5.925-.61c-3.959-1.535-4.919-4-3.752-9.627.995-4.8.9-5.946-.583-7.434s-1.6-1.336-1.82,2.766c-.241,4.6-1.174,6.591-3.6,7.663a5.342,5.342,0,0,1-3.84.109l-.717-.3v1.294c0,1.557-.109,1.463,3.536,3.04a84.427,84.427,0,0,0,11.569,3.875,57.732,57.732,0,0,0,16.672,1.781,39.08,39.08,0,0,0,9.76-1.165c1.879-.46,2.22-.435,2.553.187.406.76-.272,1.2-2.7,1.738a58.866,58.866,0,0,1-22.758.092,81.515,81.515,0,0,1-17.62-5.625c-.783-.4-.808-.4-.808-.029,0,.737,6.134,3.192,11.439,4.578,3.114.813,4.852,1.418,5.277,1.837.267.263.1.281-1.41.159a36.039,36.039,0,0,1-13.1-3.543c-1.06-.544-1.971-.989-2.024-.989s-.073.295-.044.655.15,2.1.268,3.876.27,3.613.335,4.089l.118.867,2.342,1.173c10.675,5.346,22.192,7.778,32.451,6.853a44.875,44.875,0,0,0,7.012-1.124c2.456-.544,2.856-.484,2.856.428,0,.674-.328.848-2.633,1.4a53.828,53.828,0,0,1-21.132.491A68.831,68.831,0,0,1,28.8,81.875a15.736,15.736,0,0,0-2.356-1.044,1.109,1.109,0,0,0,.045.586c.169.673,1.3,1.176,9.057,4.044,3.434,1.27,6.606,2.473,7.049,2.675l.805.367-.657.067c-2.294.237-12.71-3.052-15.135-4.779a2.8,2.8,0,0,0-.722-.415c-.331,0,.669,5.375,1.432,7.7.624,1.9.807,2.067,4.45,4.029a57.957,57.957,0,0,0,22.011,6.984,80.918,80.918,0,0,0,12.186-.081" fill="#ff9b95" fill-rule="evenodd"/>
      <path id="路径_33" data-name="路径 33" d="M94.732,76.941l.372-.3L95,81.972c-.1,5.585-.362,7.792-1.159,9.921a4.947,4.947,0,0,1-.862,1.513,66.727,66.727,0,0,1-9.024,4.332,65.475,65.475,0,0,1-17,4.268,81.183,81.183,0,0,1-12.186.081A57.975,57.975,0,0,1,32.765,95.1c-3.643-1.962-3.826-2.128-4.451-4.029-.763-2.323-1.762-7.7-1.431-7.7a2.8,2.8,0,0,1,.721.415c2.375,1.691,12.408,4.879,14.98,4.79a57.419,57.419,0,0,0,12.192,2.66,81.184,81.184,0,0,0,12.186-.081,65.475,65.475,0,0,0,17-4.268,66.85,66.85,0,0,0,9.024-4.332,4.947,4.947,0,0,0,.862-1.513,15.5,15.5,0,0,0,.887-4.106m-60.852,7.9c-6.265-2.33-7.238-2.807-7.394-3.428a1.1,1.1,0,0,1-.045-.587A16,16,0,0,1,28.8,81.875l.51.249a16.875,16.875,0,0,0,3.459,2.132q.56.3,1.115.589M28.094,79.5l-1.867-.935-.119-.867c-.065-.476-.215-2.316-.334-4.089s-.24-3.517-.269-3.877-.009-.654.044-.654.964.445,2.024.989a36.054,36.054,0,0,0,13.091,3.542,56.513,56.513,0,0,0,20.355,2.135,44.858,44.858,0,0,0,7.013-1.123c2.456-.545,2.856-.485,2.856.427,0,.675-.328.848-2.634,1.4a53.8,53.8,0,0,1-21.131.491,68.836,68.836,0,0,1-18.327-5.9,16,16,0,0,0-2.355-1.045,1.1,1.1,0,0,0,.045.586c.169.673,1.3,1.176,9.057,4.045,3.433,1.269,6.6,2.473,7.048,2.675l.806.366-.657.068c-2.294.237-12.71-3.052-15.136-4.779a2.8,2.8,0,0,0-.721-.415c-.3,0,.492,4.413,1.211,6.969m67.021-5.478-.2.183c.038-.9.066-1.916.088-3.078l.025-1.313Zm-.276-10.593c.031.526.066,1.412.1,2.5l-.512.414A42.9,42.9,0,0,1,82.793,72.62c-4.845,1.669-6.372,1.807-6.229.563.056-.484.213-.6,1.272-.92,8.15-2.477,12.294-4.52,15.931-7.853ZM28.228,68.72c-1.719-.732-2.856-1.368-2.856-1.685,0-.364.023-.37.762.006l.093.677Zm-2.5-6.64c.015.225.031.453.046.682.049.737.1,1.485.156,2.142-.8-.477-.759-.812-.759-1.763V61.847Zm22.858-1.367a62.487,62.487,0,0,0,8.362.278,39.066,39.066,0,0,0,9.759-1.165,4.774,4.774,0,0,1,2.072-.274c.019.532.039,1.027.063,1.489a9.609,9.609,0,0,1-2.284.71,56.7,56.7,0,0,1-17.96.791c0-.518-.005-1.121-.012-1.829m-16.2-1.275c1.007.339,2.054.667,3.091.964-.085.545-.146,1.057-.18,1.538a36.76,36.76,0,0,1-3.842-1.084,5.027,5.027,0,0,0,.931-1.418m45.785-8.4c.771,4.831.837,6.974.253,8.088a4.343,4.343,0,0,1-.538.829c-.49-3.663-.472-6.064.035-8.046.077-.3.161-.591.25-.871M33.064,57.015c.948.334,1.923.659,2.879.962q-.1.5-.215,1.066-.077.369-.14.721c-1-.306-2-.627-2.955-.953a11.1,11.1,0,0,0,.431-1.8M86.441,54.3a8.88,8.88,0,0,0,1.537,1.306c-3.01,1.45-5.9,2.621-6.689,2.621a.8.8,0,0,1-.583-1.447,9.71,9.71,0,0,1,1.963-.854c.845-.291,2.239-.9,3.772-1.626m-51.173-2.57c.959,1,1.275,1.9,1.046,3.946a6.033,6.033,0,0,1-1.046-3.946" fill="#ec716a" fill-rule="evenodd"/>
      <path id="路径_34" data-name="路径 34" d="M22.326,94.748c1.637-.386,2.377-.828,2.637-1.574.526-1.509.061-7.219-.906-11.108-.783-3.148-2.846-5.817-5.127-6.629a8.855,8.855,0,0,0-5.038-.026c-4.22,1.371-6.392,4.558-5.643,8.283.526,2.62,2.711,6.112,5.306,8.478,2.755,2.512,5.554,3.334,8.771,2.576" fill="#f37374" fill-rule="evenodd"/>
      <path id="路径_35" data-name="路径 35" d="M19.793,91.342c-2.1-.657-4.651-3.289-6.007-6.2a5.207,5.207,0,0,1-.1-4.265,3.981,3.981,0,0,1,4.793-1.257c.941.5,1.519,1.49,2.781,4.779.613,1.6,1.337,3.416,1.609,4.039.81,1.86.576,2.4-.594,1.375-1-.873-1.347-1.51-2.726-4.933s-1.852-4.032-2.993-3.847c-1.676.272-1.908,1.577-.709,3.98a11.946,11.946,0,0,0,4.092,4.444c2.6,1.678,2.524,2.72-.142,1.887" fill="#f37374" fill-rule="evenodd"/>
      <path id="路径_36" data-name="路径 36" d="M9.059,74.763a9.909,9.909,0,0,1-3.44-4.635c-.3-1.006-.575-1-.962.014a3.894,3.894,0,0,0,.588,3.422A3.158,3.158,0,0,0,8.354,75.1C9.549,75.1,9.557,75.094,9.059,74.763Z" fill="#85c58e" fill-rule="evenodd"/>
      <path id="路径_37" data-name="路径 37" d="M12.621,72.047c1.861-1.965,4.335-6.679,4.612-8.79l.143-1.087-.853.479a14.253,14.253,0,0,0-2,1.52,9.866,9.866,0,0,0-2.9,7.728c.06.443.169.805.244.805a3.07,3.07,0,0,0,.755-.655" fill="#85c58e" fill-rule="evenodd"/>
      <path id="路径_38" data-name="路径 38" d="M76.647,69.458c.538-.6.464-2.871-.221-6.726-.71-4-.894-8.83-.415-10.875a12.83,12.83,0,0,1,2.709-5.393,3.326,3.326,0,0,1,3.195-.986c1.865.569,3.059,1.911,4.068,4.578.956,2.522,2.29,4.019,4.029,4.517,1.544.443,2.518-.711,3.417-4.049a41.057,41.057,0,0,0,1.255-11.006l-.076-.658-.795.718c-4.32,3.9-14.693,6.741-27.557,7.54-17.247,1.069-34.876-2.32-40.51-7.79-1.13-1.1-1.055-1.238-1.471,2.761-.845,8.135-.529,13.852.932,16.887a2.988,2.988,0,0,0,5.228.232c.573-.787.941-2.665,1.151-5.863.207-3.163.473-4.05,1.333-4.442,1.11-.506,3.251.672,4.337,2.384,1.175,1.853,1.233,3.52.279,8.069-.695,3.315-.631,4.937.238,6.034,1.107,1.4,3.964,2.422,6.224,2.235a2.334,2.334,0,0,0,1.716-.663c1.13-1.083,1.206-1.839,1.033-10.372-.075-3.693.069-4.789.833-6.344a4.027,4.027,0,0,1,5.8-1.957c1.959.95,4.44,3.441,6.889,6.917a6.426,6.426,0,0,0,1.261,1.458c.448.172,1.08-.519,2.1-2.3,1.951-3.4,2.488-4.218,3.275-5,1.329-1.316,2.412-1.307,3.118.026.292.551.365,1.571.484,6.791.177,7.766.541,10.073,1.915,12.15.923,1.4,3.389,2.049,4.229,1.121" fill="#fcf0ed" fill-rule="evenodd"/>
      <path id="路径_39" data-name="路径 39" d="M65.249,45.307A82.467,82.467,0,0,0,81.671,43c8.1-2.076,12.994-5.225,12.44-8-.173-.867-1.971-2.639-3.687-3.634a45.312,45.312,0,0,0-11.2-3.861l-.824-.138-.352.921a5.165,5.165,0,0,1-.955,1.524l-.6.6.512.61a3.687,3.687,0,0,1,.713,3.325c-.483,2.774-2.1,4.127-4.918,4.11a3.877,3.877,0,0,1-3.721-4.077c0-.893-.033-.948-.4-.752a1.4,1.4,0,0,0-.522.963,5.123,5.123,0,0,1-1.464,3.324,5.3,5.3,0,0,1-6.7,1.306,4.562,4.562,0,0,1-1.973-1.711c-.47-.7-.777-.988-.91-.855-.532.532-2.7-.116-4.281-1.277a7.954,7.954,0,0,1-2.806-4.767,13.089,13.089,0,0,0-.386-1.373,2.541,2.541,0,0,0-.834.324A3.581,3.581,0,0,1,45.976,30a4.115,4.115,0,0,1-2.729-2.013c-.275-.48-.6-.8-.832-.8a52.019,52.019,0,0,0-7.476,1.834c-4.852,1.582-8.328,3.764-9.063,5.688a1.612,1.612,0,0,0,0,1.66c1.822,4.36,13.764,8.138,28.2,8.92a89.267,89.267,0,0,0,11.177.017" fill="#ffd9d0" fill-rule="evenodd"/>
      <path id="路径_40" data-name="路径 40" d="M43.525,38.954a3.747,3.747,0,0,1-2.243-3.759c0-2.1.732-3.234,2.76-4.259,1.889-.955,4.8.284,5.606,2.385a5.35,5.35,0,0,1-.361,4.392,4.082,4.082,0,0,1-3.341,1.7,3.569,3.569,0,0,1-2.421-.461" fill="#f1f3f4" fill-rule="evenodd"/>
      <path id="路径_41" data-name="路径 41" d="M64,37.677a4.478,4.478,0,0,0,2.056-2.129,3.155,3.155,0,0,0-.569-2.978c-1.209-1.127-2.89-1.118-4.564.025-1.816,1.24-2.259,3.018-1.06,4.249A3.4,3.4,0,0,0,64,37.677" fill="#fcd984" fill-rule="evenodd"/>
      <path id="路径_42" data-name="路径 42" d="M46.8,37.378a2.034,2.034,0,0,0,1.328-2.13c0-2.194-2.013-3.481-3.756-2.4a2.539,2.539,0,0,0,.215,4.528A2.473,2.473,0,0,0,46.8,37.378Z" fill="#fcd984" fill-rule="evenodd"/>
      <path id="路径_43" data-name="路径 43" d="M74.587,36.259c.69-.262,1.326-1.6,1.332-2.8a1.589,1.589,0,0,0-.647-1.484c-.618-.578-.716-.6-1.957-.5-1.555.125-2.121.618-2.333,2.035a2.581,2.581,0,0,0,.768,2.657,1.46,1.46,0,0,0,1.459.417,7.679,7.679,0,0,0,1.378-.322" fill="#fcd984" fill-rule="evenodd"/>
      <path id="路径_44" data-name="路径 44" d="M57.394,34.69c0-1.393,1.465-3.174,3.467-4.217a4.366,4.366,0,0,1,2.474-.556,4.308,4.308,0,0,1,3.557,1.444c.442.423.834.646.979.556a8.647,8.647,0,0,0,1.382-3.291c.726-3.408-2.752-6.458-7.378-6.47-.976,0-1.661.079-1.661.2s.185.2.412.2a1.994,1.994,0,0,1,1.725,1.126,1.422,1.422,0,0,1-2.093,1.606c-.619-.3-.716-.289-1.454.087a4.657,4.657,0,0,1-.957.4c-.092,0-.32-.337-.507-.748-.31-.684-.311-.79-.021-1.233a1.525,1.525,0,0,1,.7-.584.537.537,0,0,0,.382-.5c0-.56-.588-.4-3.349.938-2.185,1.054-2.255,1.109-2.767,2.159a5.581,5.581,0,0,0-.428,4.3A6.867,6.867,0,0,0,53.8,33.825,11.723,11.723,0,0,0,57.243,35.3C57.326,35.254,57.394,34.981,57.394,34.69Z" fill="#f37374" fill-rule="evenodd"/>
      <path id="路径_45" data-name="路径 45" d="M53.007,29.874c-.829-1.657-.724-2.669.4-3.833.632-.654,1.694-1.218,1.9-1.008.064.063-.059.37-.273.681a11.2,11.2,0,0,0-1.346,3.908c-.056,1.08-.232,1.148-.682.252" fill="#f1f3f4" fill-rule="evenodd"/>
      <path id="路径_46" data-name="路径 46" d="M71.794,29.709a6.309,6.309,0,0,1,1.732-.3,2.949,2.949,0,0,0,2.665-1.673c.358-.73.358-.775,0-1.495-.759-1.526-2.265-2.005-4.28-1.361l-1.161.371.284.917a6.728,6.728,0,0,1-.07,3.383c-.145.532-.19.525.83.157" fill="#fcd984" fill-rule="evenodd"/>
      <path id="路径_47" data-name="路径 47" d="M48.561,27.422a5.227,5.227,0,0,0,.868-1.673c.283-.953.282-1.1-.006-1.535-.779-1.189-2.8-1.335-4.085-.3-1.309,1.06-1.3,2.372.041,3.707.555.556.7.6,1.618.515A1.954,1.954,0,0,0,48.561,27.422Z" fill="#fcd984" fill-rule="evenodd"/>
      <path id="路径_48" data-name="路径 48" d="M57.256,17.469a13.377,13.377,0,0,0-2.291-3.015c-2.073-2.11-3.188-2.612-8.014-3.605-2.065-.425-3.826-.775-3.912-.777-.331-.009.565,1.346,1.628,2.46,2.129,2.232,6.087,4.3,11.1,5.788,1.059.315,2,.581,2.087.591a4.147,4.147,0,0,0-.6-1.442" fill="#85c58e" fill-rule="evenodd"/>
      <path id="路径_49" data-name="路径 49" d="M55.279,103.982a62.311,62.311,0,0,1-21.141-6.053,67.24,67.24,0,0,1-5.978-3.407c-.3-.267-.5-.2-1.913.616C21.191,98.065,15.535,97.1,11.36,92.59c-3.452-3.726-5.016-6.984-5-10.422a7.122,7.122,0,0,1,1.319-4.612l.413-.524-1.057-.154a4.257,4.257,0,0,1-3-1.774,5.68,5.68,0,0,1-.948-5.926c.488-1.046,2.48-3.323,2.907-3.323.548,0,1.05.8,1.05,1.675a7.4,7.4,0,0,0,1.17,3.738,16.567,16.567,0,0,0,2.793,3.177,2.311,2.311,0,0,0-.346-.954,7.442,7.442,0,0,1-.408-4.458,12.522,12.522,0,0,1,2.8-5.529c1.194-1.149,4.116-3.087,4.653-3.087,1.323,0,1.332,3.852.016,7.054a29.252,29.252,0,0,1-3.444,5.545c-.493.305-.056.4,1.087.224a8.966,8.966,0,0,1,7.813,3.047l1.038,1.148-.132-1.611c-.489-5.936-.76-12.1-.695-15.81A11.058,11.058,0,0,0,22.9,57.9c-.961-3.1-1.176-7.643-.646-13.695.442-5.059.87-7.888,1.319-8.725a3.464,3.464,0,0,0,.393-1c0-.993,1.83-3.048,3.858-4.333a40.089,40.089,0,0,1,11.65-4.276c1.384-.294,2.626-.567,2.758-.607s.335-.42.449-.844a3.978,3.978,0,0,1,.967-1.509,4.8,4.8,0,0,1,6.817-.264,5.015,5.015,0,0,1,.932,1.114c.073.229.305.114.962-.478a15.33,15.33,0,0,1,2.851-1.732l1.985-.951-1.56-.446c-5.6-1.6-10.176-4.021-12.576-6.645-2.349-2.568-2.937-5.86-1.046-5.86a2.1,2.1,0,0,1,.966.308,23.8,23.8,0,0,0,3.807,1c4.43.913,4.853,1.034,6.387,1.837a13.455,13.455,0,0,1,4.4,3.814l.953,1.258.534-1.74a16.968,16.968,0,0,1,1.3-3.029c2.619-4.418,8.819-7.67,14.632-7.675a3.679,3.679,0,0,0,2.244-.4c1.186-.786,2.305-.328,1.887.773a.693.693,0,0,0,.121.832,1.7,1.7,0,0,1,.308.982c0,.531-.118.7-.683.967a2.414,2.414,0,0,1-2.9-.679l-.675-.716-1.557.13A16.632,16.632,0,0,0,67.7,7.029c-3.307,1.665-5.348,3.677-6.477,6.384a19.557,19.557,0,0,0-1.213,5.814v.85l1.863.124a11.2,11.2,0,0,1,7.369,2.945l.985.944.4-.452a5.225,5.225,0,0,1,3.345-1,6.436,6.436,0,0,1,3.81,2.372,7.307,7.307,0,0,0,2.668.875c8.418,1.861,14.085,4.958,15.371,8.4.683,1.828.917,5.219.612,8.877-.275,3.3-.274,3.338.029,11.715.41,11.308.6,25.319.4,29.038-.333,6.1-1.158,9.488-2.653,10.882-.842.786-6.941,3.663-10.94,5.16a70.808,70.808,0,0,1-15.922,3.857,99.523,99.523,0,0,1-12.072.167m11.682-1.976a65.472,65.472,0,0,0,17-4.268,66.727,66.727,0,0,0,9.024-4.332,4.947,4.947,0,0,0,.862-1.513c.8-2.129,1.055-4.336,1.159-9.921l.1-5.331-.679.548a42.928,42.928,0,0,1-11.632,6.278c-4.845,1.668-6.372,1.806-6.229.562.055-.484.213-.6,1.272-.92,8.15-2.477,12.294-4.52,15.931-7.852l1.348-1.236L95,68.512c-.062-3.03-.159-5.555-.214-5.61a9.549,9.549,0,0,0-2.009,1.021c-3.927,2.311-10.264,5.154-11.49,5.154a.8.8,0,0,1-.583-1.447,9.683,9.683,0,0,1,1.963-.854,77.729,77.729,0,0,0,10.109-4.942L94.831,60.6l-.117-3.563c-.064-1.96-.144-3.6-.176-3.633s-.241.287-.464.724a4.931,4.931,0,0,1-2.539,2.264c-1.47.486-3.421-.314-5.1-2.089-.978-1.034-1.418-1.811-2.579-4.549-.707-1.67-2.032-2.785-3.014-2.538-1.113.279-2.262,2.128-2.919,4.7-.588,2.3-.519,5.167.241,9.918.779,4.871.848,7.027.262,8.145-.687,1.31-1.283,1.623-3.073,1.617-2.442-.008-3.967-1.039-5.11-3.456-1.116-2.357-1.386-4.322-1.536-11.174-.075-3.4-.208-6.248-.295-6.336-.243-.242-.97.77-2.582,3.6a21.223,21.223,0,0,1-2.339,3.423c-.756.742-1,.861-1.725.856-1.189-.007-1.739-.452-3.306-2.674-2.583-3.66-5.658-6.283-7.369-6.283-.862,0-1.847,1.081-2.251,2.469-.279.959-.319,2.058-.268,7.236.06,5.97.051,6.13-.4,7.247A4.9,4.9,0,0,1,45.4,69.28a10.636,10.636,0,0,1-5.924-.611c-3.96-1.534-4.919-4-3.753-9.626.995-4.8.906-5.946-.582-7.434s-1.6-1.336-1.82,2.766c-.241,4.6-1.175,6.591-3.6,7.663a5.342,5.342,0,0,1-3.84.109l-.717-.3v1.294c0,1.557-.108,1.463,3.537,3.04a84.32,84.32,0,0,0,11.568,3.874,57.7,57.7,0,0,0,16.673,1.782,39.072,39.072,0,0,0,9.759-1.165c1.879-.46,2.22-.435,2.553.187.407.76-.271,1.2-2.7,1.738a58.866,58.866,0,0,1-22.758.092,81.5,81.5,0,0,1-17.62-5.625c-.784-.4-.808-.4-.808-.029,0,.737,6.134,3.192,11.439,4.578,3.113.813,4.851,1.418,5.277,1.837.266.263.1.281-1.41.159a36.044,36.044,0,0,1-13.105-3.543c-1.06-.544-1.971-.989-2.024-.989s-.073.294-.044.654.15,2.1.269,3.877.269,3.613.334,4.089l.118.867,2.342,1.173c10.676,5.346,22.193,7.778,32.451,6.852a44.828,44.828,0,0,0,7.012-1.123c2.457-.544,2.857-.485,2.857.427,0,.675-.328.849-2.634,1.4a53.8,53.8,0,0,1-21.131.492A68.874,68.874,0,0,1,28.8,81.875a16,16,0,0,0-2.355-1.045,1.1,1.1,0,0,0,.045.587c.169.673,1.3,1.175,9.056,4.044,3.434,1.269,6.606,2.473,7.049,2.675l.806.367-.657.067c-2.294.237-12.71-3.052-15.136-4.779a2.8,2.8,0,0,0-.721-.415c-.331,0,.668,5.375,1.431,7.7.625,1.9.808,2.067,4.451,4.029a57.975,57.975,0,0,0,22.011,6.984,81.169,81.169,0,0,0,12.185-.081M22.326,94.748c1.637-.386,2.377-.827,2.637-1.574.526-1.509.06-7.219-.906-11.107-.783-3.149-2.846-5.818-5.127-6.629a8.855,8.855,0,0,0-5.038-.026c-4.22,1.37-6.392,4.557-5.644,8.282.527,2.621,2.712,6.113,5.307,8.479,2.755,2.512,5.554,3.334,8.771,2.575m-2.534-3.406c-2.1-.657-4.651-3.289-6.007-6.2a5.21,5.21,0,0,1-.1-4.265,3.982,3.982,0,0,1,4.794-1.257c.941.5,1.519,1.49,2.781,4.779.613,1.6,1.337,3.416,1.608,4.039.811,1.86.576,2.4-.594,1.375-1-.873-1.347-1.51-2.725-4.934s-1.852-4.032-2.994-3.846c-1.675.272-1.907,1.577-.708,3.98a11.934,11.934,0,0,0,4.091,4.444c2.6,1.678,2.525,2.72-.142,1.887M9.059,74.763a9.9,9.9,0,0,1-3.44-4.634c-.3-1.007-.576-1-.963.013a3.891,3.891,0,0,0,.589,3.422A3.158,3.158,0,0,0,8.354,75.1C9.548,75.1,9.557,75.094,9.059,74.763Zm3.562-2.715c1.861-1.966,4.335-6.68,4.612-8.791l.143-1.087-.853.479a14.255,14.255,0,0,0-2,1.52,9.872,9.872,0,0,0-2.9,7.729c.059.442.169.8.243.8a3.076,3.076,0,0,0,.756-.654m64.025-2.589c.539-.6.464-2.872-.221-6.726-.71-4-.894-8.831-.414-10.875a12.823,12.823,0,0,1,2.709-5.394,3.321,3.321,0,0,1,3.194-.985c1.866.568,3.059,1.911,4.069,4.577.955,2.522,2.29,4.019,4.028,4.518,1.544.443,2.518-.711,3.417-4.049a41.026,41.026,0,0,0,1.256-11.006l-.076-.658-.795.718c-4.321,3.9-14.693,6.741-27.558,7.539-17.246,1.07-34.875-2.32-40.51-7.79-1.13-1.1-1.055-1.237-1.47,2.762-.845,8.135-.53,13.852.932,16.886a2.986,2.986,0,0,0,5.227.232c.573-.787.942-2.664,1.151-5.863.207-3.162.474-4.05,1.333-4.442,1.11-.505,3.251.672,4.338,2.385,1.175,1.853,1.232,3.52.279,8.069-.695,3.314-.631,4.936.238,6.033,1.106,1.4,3.963,2.423,6.224,2.236a2.335,2.335,0,0,0,1.716-.664c1.13-1.082,1.2-1.838,1.032-10.372-.075-3.693.069-4.789.833-6.344a4.027,4.027,0,0,1,5.8-1.956c1.959.949,4.44,3.44,6.889,6.917a6.424,6.424,0,0,0,1.261,1.458c.447.171,1.079-.52,2.1-2.3,1.95-3.4,2.487-4.218,3.274-5,1.329-1.317,2.412-1.308,3.119.025.292.552.364,1.571.484,6.791.177,7.767.541,10.074,1.915,12.15.923,1.4,3.389,2.049,4.228,1.122m-11.4-24.152A82.551,82.551,0,0,0,81.671,43c8.1-2.076,12.993-5.225,12.439-8-.173-.867-1.971-2.639-3.687-3.634a45.283,45.283,0,0,0-11.2-3.861l-.824-.138-.351.921a5.185,5.185,0,0,1-.955,1.524l-.6.6.513.609a3.693,3.693,0,0,1,.713,3.326c-.484,2.774-2.1,4.127-4.918,4.11a3.878,3.878,0,0,1-3.722-4.077c0-.893-.033-.948-.4-.753a1.405,1.405,0,0,0-.523.964,5.126,5.126,0,0,1-1.464,3.324,5.3,5.3,0,0,1-6.7,1.306,4.559,4.559,0,0,1-1.972-1.711c-.47-.7-.778-.988-.91-.856-.532.532-2.7-.115-4.281-1.276a7.95,7.95,0,0,1-2.806-4.767,13.672,13.672,0,0,0-.386-1.373,2.544,2.544,0,0,0-.834.323A3.58,3.58,0,0,1,45.975,30a4.118,4.118,0,0,1-2.729-2.014c-.274-.48-.6-.794-.832-.8a52.019,52.019,0,0,0-7.476,1.834c-4.852,1.582-8.327,3.764-9.062,5.688a1.61,1.61,0,0,0-.006,1.659c1.822,4.361,13.765,8.139,28.2,8.921a89.459,89.459,0,0,0,11.177.017M43.525,38.954a3.748,3.748,0,0,1-2.243-3.759c0-2.1.731-3.234,2.759-4.259,1.89-.955,4.805.284,5.607,2.385a5.347,5.347,0,0,1-.361,4.391,4.081,4.081,0,0,1-3.342,1.7,3.573,3.573,0,0,1-2.42-.461M64,37.677a4.476,4.476,0,0,0,2.056-2.128,3.157,3.157,0,0,0-.57-2.979c-1.209-1.127-2.889-1.118-4.563.025-1.816,1.24-2.26,3.018-1.06,4.25A3.4,3.4,0,0,0,64,37.677m-17.2-.3a2.035,2.035,0,0,0,1.328-2.13c0-2.194-2.013-3.481-3.757-2.4a2.539,2.539,0,0,0,.216,4.528A2.473,2.473,0,0,0,46.8,37.378ZM74.586,36.26c.69-.263,1.326-1.6,1.332-2.8a1.59,1.59,0,0,0-.647-1.484c-.618-.578-.715-.6-1.957-.5-1.555.125-2.12.618-2.333,2.035a2.581,2.581,0,0,0,.768,2.657,1.463,1.463,0,0,0,1.459.417,7.854,7.854,0,0,0,1.378-.322M57.394,34.69c0-1.393,1.464-3.174,3.467-4.217a4.364,4.364,0,0,1,2.474-.556,4.311,4.311,0,0,1,3.557,1.443c.442.424.834.646.979.557a8.648,8.648,0,0,0,1.381-3.291c.727-3.408-2.751-6.458-7.377-6.47-.976,0-1.661.079-1.661.2s.185.2.412.2a2,2,0,0,1,1.725,1.126,1.423,1.423,0,0,1-2.094,1.607c-.618-.3-.715-.29-1.453.086a4.623,4.623,0,0,1-.957.4c-.092,0-.32-.337-.507-.748-.31-.684-.312-.79-.021-1.233a1.523,1.523,0,0,1,.7-.585.536.536,0,0,0,.382-.5c0-.559-.588-.395-3.349.938-2.185,1.055-2.255,1.11-2.767,2.159a5.583,5.583,0,0,0-.428,4.3A6.86,6.86,0,0,0,53.8,33.825,11.75,11.75,0,0,0,57.243,35.3C57.326,35.254,57.394,34.981,57.394,34.69Zm-4.388-4.816c-.829-1.656-.724-2.668.4-3.832.631-.655,1.694-1.218,1.9-1.009.064.064-.059.371-.273.682a11.206,11.206,0,0,0-1.347,3.908c-.055,1.08-.232,1.148-.682.251m18.788-.164a6.272,6.272,0,0,1,1.732-.3,2.95,2.95,0,0,0,2.665-1.673c.358-.73.358-.776,0-1.5-.759-1.526-2.265-2-4.281-1.361l-1.16.371.284.916a6.732,6.732,0,0,1-.07,3.384c-.145.531-.19.524.83.157M48.561,27.422a5.226,5.226,0,0,0,.867-1.673c.283-.953.283-1.1-.005-1.535-.779-1.189-2.8-1.335-4.085-.3-1.31,1.06-1.3,2.372.04,3.707.556.556.7.6,1.619.515a1.95,1.95,0,0,0,1.563-.719Zm8.695-9.953a13.377,13.377,0,0,0-2.291-3.015c-2.073-2.11-3.188-2.612-8.014-3.605-2.065-.425-3.826-.775-3.912-.777-.331-.009.565,1.346,1.628,2.46,2.129,2.232,6.087,4.3,11.1,5.788,1.059.315,2,.581,2.087.591a4.147,4.147,0,0,0-.6-1.442" fill="#2d1717" fill-rule="evenodd"/>
    </g>
  </g>
</svg>
