<?xml version="1.0" encoding="UTF-8" standalone="no"?><svg xmlns="http://www.w3.org/2000/svg" xmlns:xlink="http://www.w3.org/1999/xlink" width="120.863" height="130.733" viewBox="0 0 120.863 130.733">
  <defs>
    <clipPath id="clip-path">
      <rect id="矩形_25" data-name="矩形 25" width="97" height="110.55" fill="none"/>
    </clipPath>
  </defs>
  <g id="组_8" data-name="组 8" transform="translate(26.745) rotate(14)">
    <g id="组_7" data-name="组 7" clip-path="url(#clip-path)">
      <path id="路径_67" data-name="路径 67" d="M125.158,165.718c-3.019,6.795-1.093,14.2,4.305,16.548s12.228-1.266,15.246-8.072,1.1-14.211-4.307-16.554-12.223,1.275-15.244,8.078" transform="translate(-61.909 -78.52)" fill="#ff9797"/>
      <path id="路径_68" data-name="路径 68" d="M134.052,182.812a9.807,9.807,0,0,1-5.656-.612,10.249,10.249,0,0,1-5.74-7.106,15.975,15.975,0,0,1,1.037-10.437c2.13-4.786,6.186-8.26,10.591-9.059a9.782,9.782,0,0,1,5.662.61,10.238,10.238,0,0,1,5.737,7.109,15.948,15.948,0,0,1-1.039,10.425c-2.131,4.795-6.19,8.268-10.592,9.071m.512-25.741c-3.912.709-7.545,3.854-9.474,8.194a14.475,14.475,0,0,0-.964,9.464,8.782,8.782,0,0,0,4.882,6.108,8.26,8.26,0,0,0,4.771.5c3.911-.7,7.539-3.849,9.473-8.188a14.532,14.532,0,0,0,.965-9.464,8.768,8.768,0,0,0-4.883-6.107,8.261,8.261,0,0,0-4.771-.5" transform="translate(-61.144 -77.77)" fill="#e86b62"/>
      <path id="路径_69" data-name="路径 69" d="M104.53,35.273s-.93-4.726,8.322-10.438c0,0-18.426,6.219-20.487,18.954,0,0,8.91,8.224,12.165-8.516" transform="translate(-46.215 -12.426)" fill="#92b386"/>
      <path id="路径_70" data-name="路径 70" d="M54.688,41.958S44.38,26.946,38.919,31.587c0,0,7.424.705,7.723,14.108,0,0,7.252,3.318,8.046-3.736" transform="translate(-19.473 -15.359)" fill="#92b386"/>
      <path id="路径_71" data-name="路径 71" d="M111.742,47.079a27.719,27.719,0,0,0,1.7-2.752c2.255-3.916,5.355-7.911,9.783-9.478,2.567-.908,8.652-2.76,10.636.01a5.449,5.449,0,0,0-.5-.524c-.234-.242-.469-.489-.7-.731-.367-.351-.725-.684-1.117-1-4.667-3.813-10.626-2.093-15.609.082A35.218,35.218,0,0,0,106.9,38.4a27.142,27.142,0,0,0-6.623,9.017c-.009.03-.288.6-.288.6a25.089,25.089,0,0,0,3.809,1.434,7.965,7.965,0,0,0,5.923-.467,6.963,6.963,0,0,0,2.023-1.9" transform="translate(-50.028 -15.185)" fill="#5b7950"/>
      <path id="路径_72" data-name="路径 72" d="M23.689,64.392s-17.495,2.8-18.5-7.229c0,0,2.41,11.159,16.59,2.467l7.75,3.845Z" transform="translate(-2.596 -28.602)" fill="#5b7950"/>
      <path id="路径_73" data-name="路径 73" d="M62.994,25.956S62.259,7.059,52.869,0l-5.1,1.7s14.357,8.335,13.278,29.075l3.167,2.473Z" transform="translate(-23.9 -0.001)" fill="#6c8e5e"/>
      <path id="路径_74" data-name="路径 74" d="M60.541,26.46S59.761,7.532,50.384.469L45.477,1.992S59.668,10.543,58.6,31.287l3.155,2.472Z" transform="translate(-22.755 -0.235)" fill="#446537"/>
      <path id="路径_75" data-name="路径 75" d="M85.763,36.816S98.61,21.5,89.589,7.283c0,0,1.571,8.984-5.474,12.929,0,0-9.494,5.038-7.976,15.568,0,0,7.262,4.431,9.624,1.036" transform="translate(-38.014 -3.644)" fill="#5b7950"/>
      <path id="路径_76" data-name="路径 76" d="M49.142,53.092s-2.35-11.469-14.05-9.364c0,0-12.583,3.392-16.193-4.328,0,0,9.384,18.983,17.489,15.188,0,0,13.991,5.7,12.754-1.5" transform="translate(-9.456 -19.714)" fill="#5b7950"/>
      <path id="路径_77" data-name="路径 77" d="M135.461,114.892c-2.389,8.523,1.155,16.938,7.922,18.792s14.185-3.542,16.573-12.059-1.159-16.933-7.919-18.792-14.186,3.539-16.576,12.059" transform="translate(-67.405 -51.27)" fill="#ff9797"/>
      <path id="路径_78" data-name="路径 78" d="M146.742,134.072a.848.848,0,0,1,.507-.2,9.806,9.806,0,0,1-4.832-.216,12.118,12.118,0,0,1-7.89-7.335,18.879,18.879,0,0,1-.558-12.381,19.768,19.768,0,0,1,4.882-8.566,14.485,14.485,0,0,1,7.64-4.222,11.2,11.2,0,0,1,4.988.214c7.152,1.965,10.946,10.808,8.445,19.7a16.272,16.272,0,0,1-2.8,5.986,28.362,28.362,0,0,1-4.623,4.05c.278-.222.559-.462.847-.668a21.832,21.832,0,0,1-5.973,3.468c-.21.06-.421.123-.635.162m.025-31.445c-5.073.92-9.623,5.627-11.337,11.717a17.42,17.42,0,0,0,.5,11.407,10.627,10.627,0,0,0,6.887,6.463,9.546,9.546,0,0,0,4.3.178c5.072-.916,9.632-5.626,11.337-11.715,2.276-8.109-1.042-16.133-7.387-17.869a9.677,9.677,0,0,0-4.3-.181" transform="translate(-66.643 -50.521)" fill="#e86b62"/>
      <path id="路径_79" data-name="路径 79" d="M60.569,188.412c5.468,5.125,13.188,5.866,17.246,1.66s2.909-11.775-2.556-16.9-13.188-5.866-17.247-1.654S55.1,183.3,60.569,188.412" transform="translate(-27.812 -84.455)" fill="#ed5d7c"/>
      <path id="路径_80" data-name="路径 80" d="M72.3,192.618c-4.287.774-9.269-.913-13-4.41-5.761-5.4-6.928-13.449-2.59-17.953a9.7,9.7,0,0,1,5.322-2.77c4.287-.776,9.269.91,12.995,4.4a16.136,16.136,0,0,1,5.083,9.226,10.1,10.1,0,0,1-2.492,8.732,9.729,9.729,0,0,1-5.321,2.77m-9.988-23.661a8.212,8.212,0,0,0-4.494,2.328c-3.761,3.905-2.629,11.012,2.526,15.837,3.385,3.173,7.86,4.716,11.676,4.018a8.206,8.206,0,0,0,4.5-2.327,8.654,8.654,0,0,0,2.092-7.481,14.69,14.69,0,0,0-4.623-8.356c-3.386-3.17-7.863-4.708-11.679-4.019" transform="translate(-27.063 -83.708)" fill="#e86b62"/>
      <path id="路径_81" data-name="路径 81" d="M87.4,178.838c1.852,7.9,9.357,12.953,16.773,11.28,7.4-1.672,11.9-9.439,10.037-17.351s-9.361-12.95-16.766-11.282S85.533,170.929,87.4,178.838" transform="translate(-43.518 -80.64)" fill="#ff6f80"/>
      <path id="路径_82" data-name="路径 82" d="M102.987,190.215a14.157,14.157,0,0,1-10.711-2.438,16.077,16.077,0,0,1-6.387-9.523,15.8,15.8,0,0,1,1.633-11.559A13.855,13.855,0,0,1,96.5,160c.2-.044.387-.081.586-.119a14.185,14.185,0,0,1,10.716,2.445,16.089,16.089,0,0,1,6.378,9.525c1.95,8.291-2.808,16.482-10.611,18.242-.194.045-.391.092-.586.122m-5.616-28.861c-.174.033-.353.073-.528.109a12.346,12.346,0,0,0-8,5.977,14.323,14.323,0,0,0-1.472,10.482c1.721,7.309,8.459,12.064,15.342,10.821.174-.027.343-.063.519-.1,6.986-1.584,11.235-8.957,9.471-16.456-1.714-7.314-8.453-12.066-15.33-10.828" transform="translate(-42.755 -79.887)" fill="#e86b62"/>
      <path id="路径_83" data-name="路径 83" d="M27.114,152.309c4.537,7.636,13.131,11,19.18,7.505s7.272-12.516,2.728-20.147-13.131-11-19.18-7.5-7.27,12.5-2.728,20.146" transform="translate(-12.193 -65.437)" fill="#ed5d7c"/>
      <path id="路径_84" data-name="路径 84" d="M42.383,161.008a14.1,14.1,0,0,1-9.125-1.691,19.938,19.938,0,0,1-7.562-7.374c-4.742-7.983-3.4-17.488,3-21.18a11.146,11.146,0,0,1,3.548-1.286,14.1,14.1,0,0,1,9.123,1.679,19.851,19.851,0,0,1,7.552,7.39c4.752,7.979,3.4,17.474-3,21.169a11.135,11.135,0,0,1-3.54,1.293m-9.856-30.064a9.473,9.473,0,0,0-3.054,1.117c-5.683,3.274-6.787,11.858-2.462,19.118,3.508,5.9,9.707,9.329,15.092,8.354a9.316,9.316,0,0,0,3.05-1.115c5.68-3.271,6.78-11.85,2.465-19.117-3.512-5.894-9.712-9.329-15.092-8.357" transform="translate(-11.439 -64.69)" fill="#e86b62"/>
      <path id="路径_85" data-name="路径 85" d="M104.753,118.234c1.152,9.591,8.242,16.664,15.855,15.8s12.852-9.351,11.7-18.939-8.247-16.668-15.851-15.806-12.848,9.346-11.707,18.947" transform="translate(-52.335 -49.643)" fill="#ff6f80"/>
      <path id="路径_86" data-name="路径 86" d="M120.721,133.919c-.259.045-.522.081-.782.117a13.372,13.372,0,0,1-10.976-4.2,20.714,20.714,0,0,1-5.717-12.272c-1.157-9.626,3.941-18.263,11.585-19.641a6.591,6.591,0,0,1,.779-.117A13.337,13.337,0,0,1,126.584,102a20.746,20.746,0,0,1,5.724,12.264c1.146,9.639-3.939,18.272-11.587,19.657M115.11,99.4c-6.868,1.24-11.416,9.153-10.36,18a19.262,19.262,0,0,0,5.291,11.386,11.879,11.879,0,0,0,9.72,3.762c.224-.029.456-.066.681-.107,6.862-1.24,11.416-9.153,10.354-18.008a19.293,19.293,0,0,0-5.289-11.383,11.876,11.876,0,0,0-9.717-3.758c-.229.025-.454.06-.681.1" transform="translate(-51.577 -48.9)" fill="#e86b62"/>
      <path id="路径_87" data-name="路径 87" d="M54.783,132.6c3.195,9.132,11.66,14.545,18.9,12.093S84.2,132.842,81,123.712,69.332,109.157,62.087,111.62c-7.232,2.444-10.51,11.843-7.3,20.976" transform="translate(-26.795 -55.552)" fill="#f96982"/>
      <path id="路径_88" data-name="路径 88" d="M69.85,145.264a14.655,14.655,0,0,1-10.877-4.512c-2.438-2.5-4.73-5.149-5.8-8.518-.931-2.9-.648-6.022-1.208-9-.195-1.036.361-2.2.635-3.379.06-.218.117-.428.178-.631s.13-.415.2-.623a13.088,13.088,0,0,1,8.044-8.453,12.053,12.053,0,0,1,1.7-.437c7.3-1.318,15.113,4.267,18.171,13.008.2.573.381,1.141.536,1.719.08.288.151.576.216.867a18.368,18.368,0,0,1,.783,4.389c.012.291.015.584.016.873a19.118,19.118,0,0,1,.273,2.409c.009.268.01.537,0,.8-1.521,5.191-5.97,10.253-11.29,11.309a14.316,14.316,0,0,1-1.575.18M63,111.189a9.967,9.967,0,0,0-1.474.379,11.6,11.6,0,0,0-7.1,7.522c-.144.41-.273.839-.385,1.268-.061.221-.107.438-.151.647-1.144,4.675.188,9.316,1.977,13.861.863,2.134,2.989,3.574,4.655,5.395.214.184.428.367.65.541.231.191.47.361.709.531a12.786,12.786,0,0,0,8.5,2.393c.26-.03.51-.076.758-.114,5.03-.995,8.7-5.317,9.978-10.186.021-.215.027-.437.029-.663a15.486,15.486,0,0,0-.136-2.053c0-.28-.007-.551-.027-.831a18.582,18.582,0,0,0-1.026-5.072c-.064-.274-.145-.54-.227-.808s-.169-.537-.261-.8c-2.819-8.044-9.9-13.208-16.469-12.011" transform="translate(-25.982 -54.798)" fill="#e86b62"/>
      <path id="路径_89" data-name="路径 89" d="M141.568,67.663c1.637,8.706,8.559,14.736,15.462,13.486s11.155-9.308,9.52-18.011S157.991,48.4,151.089,49.652s-11.161,9.313-9.52,18.011" transform="translate(-70.659 -24.761)" fill="#ff9797"/>
      <path id="路径_90" data-name="路径 90" d="M156.407,81.139c-7.3,1.317-14.637-5-16.349-14.1s2.827-17.56,10.127-18.886,14.633,5,16.349,14.092S163.71,79.81,156.407,81.139m-5.941-31.5c-6.474,1.169-10.473,8.857-8.91,17.136s8.1,14.057,14.572,12.886,10.477-8.862,8.914-17.142-8.1-14.058-14.576-12.88" transform="translate(-69.896 -24.007)" fill="#e86b62"/>
      <path id="路径_91" data-name="路径 91" d="M1.857,99.428c1.644,8.7,8.574,14.738,15.465,13.483S28.485,103.6,26.845,94.9,18.279,80.164,11.381,81.408.223,90.722,1.857,99.428" transform="translate(-0.754 -40.652)" fill="#ed5d7c"/>
      <path id="路径_92" data-name="路径 92" d="M16.707,112.908c-7.3,1.324-14.634-4.994-16.345-14.086S3.19,81.26,10.492,79.94s12.8,5.526,16.347,14.089c3.877,9.378-2.833,17.559-10.132,18.879M10.768,81.414C4.29,82.588.3,90.272,1.854,98.559c1.558,8.27,8.1,14.057,14.579,12.884s10.469-8.866,8.912-17.151-8.1-14.054-14.577-12.877" transform="translate(0 -39.916)" fill="#e86b62"/>
      <path id="路径_93" data-name="路径 93" d="M112.475,68.67c1.829,9.712,9.034,16.558,16.081,15.277S139.834,73.754,138,64.042,128.97,47.49,121.92,48.765s-11.275,10.188-9.445,19.905" transform="translate(-56.064 -24.323)" fill="#ff6f80"/>
      <path id="路径_94" data-name="路径 94" d="M125.942,83.868a8.769,8.769,0,0,1-4.275-.7c-.256-.111-.512-.222-.763-.35a15.2,15.2,0,0,1-3.632-2.6,22.534,22.534,0,0,1-6.3-12.159,22.273,22.273,0,0,1,1.453-13.572c1.889-3.988,4.94-6.539,8.6-7.2s7.443.655,10.667,3.71a19.39,19.39,0,0,1,2.671,3.174c.16.232.317.472.46.713,3.212,7.046,6.546,15.738.91,22.707a7.76,7.76,0,0,0-1.012,2,2.865,2.865,0,0,1-.262.482,4.121,4.121,0,0,1-.384.466c-1.99,2.27-5.094,2.993-8.124,3.332M121.3,48.747c-6.623,1.207-10.591,9.745-8.839,19.039,1.215,6.425,4.857,11.562,9.182,13.718.241.114.482.229.717.335,3.308,1.368,7.433.318,10.1-2.018.234-.219.451-.446.66-.671,5.63-6.373,4.625-16.307.467-23.378-.085-.138-.164-.276-.255-.409-3.025-4.7-7.576-7.408-12.036-6.615" transform="translate(-55.301 -23.575)" fill="#e86b62"/>
      <path id="路径_95" data-name="路径 95" d="M29.589,82.106c1.689,8.938,8.8,15.143,15.889,13.865s11.474-9.577,9.789-18.518S46.467,62.3,39.375,63.587,27.9,73.16,29.589,82.106" transform="translate(-14.623 -31.732)" fill="#f96982"/>
      <path id="路径_96" data-name="路径 96" d="M44.855,95.952C37.374,97.312,29.844,90.825,28.082,81.5s2.91-18.036,10.392-19.388,15.019,5.13,16.781,14.46-2.9,18.031-10.4,19.384m-6.1-32.375C32.089,64.79,27.973,72.7,29.578,81.223s8.335,14.473,15,13.254,10.783-9.119,9.178-17.635S45.421,62.37,38.751,63.576" transform="translate(-13.865 -30.986)" fill="#e86b62"/>
      <path id="路径_97" data-name="路径 97" d="M69.329,78.213c1.937,10.27,10.1,17.4,18.246,15.919s13.167-10.988,11.237-21.257S88.707,55.489,80.557,56.955c-8.137,1.482-13.165,10.994-11.228,21.258" transform="translate(-34.481 -28.402)" fill="#f96982"/>
      <path id="路径_98" data-name="路径 98" d="M84.115,94.71a12.985,12.985,0,0,1-8.267-2.615,14.6,14.6,0,0,1-5.308-7.043c-.142-.247-.274-.5-.406-.747a24.022,24.022,0,0,1-2.314-6.7c-2.007-10.653,3.31-20.582,11.843-22.13S96.788,61.343,98.8,72a22.368,22.368,0,0,1-1.578,13.72c-.126.25-.252.515-.386.758-2.729,4.961-6.673,8.252-12.543,8.236h-.174M79.943,56.952c-7.718,1.4-12.481,10.543-10.63,20.382a22.979,22.979,0,0,0,2.09,6.141c.137.261.273.521.417.774,1.557,4.034,5.4,6.39,9.28,8.084.156.06.305.114.478.168,5.719,1.758,12.1-.989,14-6.87.142-.263.272-.539.4-.809A21.007,21.007,0,0,0,97.3,72.267c-1.849-9.842-9.635-16.712-17.355-15.315" transform="translate(-33.722 -27.657)" fill="#e86b62"/>
      <path id="路径_99" data-name="路径 99" d="M78.983,88.017c1.067,5.685,5.159,9.713,9.124,9s6.322-5.911,5.243-11.6-5.155-9.719-9.126-9.005-6.317,5.915-5.241,11.606" transform="translate(-39.389 -38.192)" fill="#ff6f80"/>
      <path id="路径_100" data-name="路径 100" d="M77.958,164.952c.363,1.957,3.477,3.034,6.943,2.41s5.97-2.725,5.6-4.683-3.475-3.043-6.937-2.409-5.976,2.721-5.607,4.682" transform="translate(-38.988 -80.101)" fill="#ff6f80"/>
      <path id="路径_101" data-name="路径 101" d="M114.592,190.094c.764,4.056,3.573,6.939,6.269,6.447s4.265-4.168,3.5-8.219-3.578-6.945-6.27-6.461-4.267,4.179-3.5,8.233" transform="translate(-57.24 -90.968)" fill="#ff9797"/>
      <path id="路径_102" data-name="路径 102" d="M136.338,132.92c-1.231,5.006-5,8.591-4.283,10.226.386.739,2.292.879,4.612-.468a13.358,13.358,0,0,0,6.041-7.98,13.211,13.211,0,0,0-.929-9.926c-1.273-2.352-2.971-3.219-3.685-2.786-1.481,1.024-.163,6.022-1.755,10.935" transform="translate(-66.029 -60.982)" fill="#ff9797"/>
      <path id="路径_103" data-name="路径 103" d="M141.879,92.141c-2.387,3.094-6.092,4.452-6.1,5.8.042.628,1.318,1.281,3.337,1.05a10.251,10.251,0,0,0,6.625-3.718,9.979,9.979,0,0,0,2.4-7.134c-.164-2-1.072-3.111-1.7-3.018-1.341.257-1.961,4.113-4.568,7.025" transform="translate(-67.938 -42.586)" fill="#ff9797"/>
      <path id="路径_104" data-name="路径 104" d="M51.521,0s.85.85-3.4,1.7S44.684.85,46.827.425A28.386,28.386,0,0,1,51.521,0" transform="translate(-22.552)" fill="#5b7950"/>
      <path id="路径_105" data-name="路径 105" d="M85.107,117.224s2.851,14.022,15.62,11.057,8.653-16.915,8.653-16.915-1,7.055-10.211,9.32c-9.231,2.269-14.063-3.462-14.063-3.462" transform="translate(-42.584 -55.722)" fill="#333"/>
      <path id="路径_106" data-name="路径 106" d="M99.774,137.124s2.39-3.8,6.018-4.918a9.447,9.447,0,0,1,8.826,1.335s-1.386,3.783-6.552,4.913c-5.751,1.258-8.292-1.331-8.292-1.331" transform="translate(-49.922 -65.896)" fill="#ff7d8d"/>
      <path id="路径_107" data-name="路径 107" d="M57.324,106.919a1.353,1.353,0,0,1-1.34-1.536c.037-.272,1-6.675,6.659-7.724,4.632-.854,7.633,3.345,8.569,5.688a1.352,1.352,0,1,1-2.51,1c-.076-.188-1.966-4.7-5.567-4.033-3.738.692-4.447,5.25-4.476,5.444a1.354,1.354,0,0,1-1.337,1.158" transform="translate(-28.006 -48.807)" fill="#333"/>
      <path id="路径_108" data-name="路径 108" d="M128.944,93.668a1.352,1.352,0,0,1-1.341-1.538c.038-.272,1-6.676,6.66-7.724,4.627-.854,7.632,3.346,8.569,5.688a1.352,1.352,0,1,1-2.51,1c-.076-.188-1.957-4.7-5.567-4.033-3.77.7-4.468,5.392-4.475,5.439a1.352,1.352,0,0,1-1.337,1.165" transform="translate(-63.84 -42.176)" fill="#333"/>
      <path id="路径_109" data-name="路径 109" d="M65.865,121a2.388,2.388,0,0,0,.05.247c1.3,5.038,12.073,2.821,9.476-2.011,0,0-1.035-1.924-5.194-1.778-1.69.059-4.656,1.376-4.332,3.541" transform="translate(-32.944 -58.768)" fill="#ffa4b3"/>
      <path id="路径_110" data-name="路径 110" d="M142.087,106.128a2.433,2.433,0,0,1,.041.249c.585,5.171-10.265,6.954-9.568,1.513,0,0,.278-2.167,4.214-3.519,1.6-.549,4.84-.382,5.313,1.757" transform="translate(-66.311 -52.089)" fill="#ffa4b3"/>
    </g>
  </g>
</svg>
