<?xml version="1.0" encoding="UTF-8" standalone="no"?><svg xmlns="http://www.w3.org/2000/svg" xmlns:xlink="http://www.w3.org/1999/xlink" width="194.816" height="139.212" viewBox="0 0 194.816 139.212">
  <defs>
    <clipPath id="clip-path">
      <rect id="矩形_22" data-name="矩形 22" width="175.945" height="99.606" transform="translate(0 0)" fill="none"/>
    </clipPath>
  </defs>
  <g id="组_2" data-name="组 2" transform="translate(0 42.565) rotate(-14)">
    <g id="组_1" data-name="组 1" clip-path="url(#clip-path)">
      <path id="路径_4" data-name="路径 4" d="M76.312,99.489C72.558,99.32,68.9,99,62.354,98.276c-2.233-.247-5.727-.372-11.921-.423-10.932-.091-13.141-.19-16.709-.753C24,95.565,19.315,93.772,16,90.313a12.624,12.624,0,0,0-4.077-3C4.071,83.146,0,78.169,0,72.741c0-3.448,1.234-6,4.992-10.314a40.881,40.881,0,0,0,6.928-10.85c2.068-4.416,2.938-5.5,5.536-6.888,2.475-1.324,6.338-2.083,12.4-2.435,2.129-.124,5.251-.366,6.936-.538s3.5-.313,4.04-.313c.892,0,1.037-.077,1.723-.919A38.024,38.024,0,0,1,55.528,29.691c7.24-3.784,15.448-5.626,25.165-5.646,2.185,0,4.982.1,6.215.228C97.785,25.421,107,29.683,113.6,36.622l1.63,1.712,2.343.222A92.251,92.251,0,0,1,132.552,41.4a68.529,68.529,0,0,0,12.236,2.38c15.555,1.857,23.224,3.994,27.665,7.711a8.713,8.713,0,0,1,2.919,4.815,11.459,11.459,0,0,1,.573,4.494,11.343,11.343,0,0,1-.674,4.66,27.864,27.864,0,0,1-1.4,3.468c-5.78,11.141-22.067,22.082-39.98,26.858-6.029,1.607-9.551,2.084-17.746,2.4-3.194.124-8.742.372-12.328.55-17.791.885-21.913,1-27.509.746" fill="#fff" fill-rule="evenodd"/>
      <path id="路径_5" data-name="路径 5" d="M98.177,92.9c5.409-.258,12.5-.564,15.764-.681,3.4-.122,7.184-.372,8.869-.585,16.546-2.1,34.718-11.318,42.475-21.55a26.987,26.987,0,0,0,2.038-3.4c1.918-3.822,2.091-7.2.53-10.362-.878-1.777-1.843-2.632-4.376-3.877-4.193-2.062-10.006-3.343-20.893-4.6a84.329,84.329,0,0,1-12-2.019l-3.251-.862c-2.518-.666-11.644-2.079-11.884-1.839a7.174,7.174,0,0,0,.946,1.628,32.943,32.943,0,0,1,4.753,11.091c.4,2.325-.51,4.131-2.989,5.963-6.112,4.515-22.835,7.363-41.224,7.022-19.321-.359-32.71-3.847-36.312-9.462a6.325,6.325,0,0,1-.993-4.385,25.211,25.211,0,0,1,2.484-6.849l1.325-2.621-1.278.125c-.7.069-1.709.205-2.235.3s-2.484.22-4.351.274c-7.618.219-12.467,1.239-14.658,3.082-.885.745-1.52,1.746-3.23,5.092a34.656,34.656,0,0,1-5.625,8.352c-2.812,3.125-3.373,3.856-4.131,5.374a5.241,5.241,0,0,0-.71,3.351,5.234,5.234,0,0,0,.638,3.225,13.819,13.819,0,0,0,4.09,4.776,35.989,35.989,0,0,0,6.478,3.868l.5.118-.253-1.209a12.348,12.348,0,0,1-.258-1.81c-.008-1.221,1.5-5.15,2.128-5.537.151-.093.191-.043.118.147a19.862,19.862,0,0,0-.322,2.183c-.116,1.043-.309,2.729-.429,3.747-.215,1.828-.212,1.864.3,2.9,1.473,3.01,5.541,5.206,12.073,6.516,6.239,1.252,6.784,1.295,18.552,1.467,6,.088,11.16.205,11.476.26.79.138,8.5.86,11.189,1.047,4.64.323,14.659.217,24.688-.261" fill="#fff" fill-rule="evenodd"/>
      <path id="路径_6" data-name="路径 6" d="M168.4,57.642c.933,2.78.576,5.746-1.077,9.04a26.915,26.915,0,0,1-2.038,3.4c-7.757,10.232-25.929,19.451-42.476,21.55-1.684.214-5.47.464-8.868.585-3.262.117-10.355.424-15.764.681-10.029.478-20.048.584-24.688.261C70.8,92.97,63.09,92.249,62.3,92.11c-.316-.055-5.48-.172-11.476-.26-11.768-.172-12.313-.215-18.552-1.466-6.532-1.311-10.6-3.506-12.073-6.516-.507-1.037-.51-1.073-.3-2.9.1-.884.263-2.271.379-3.3,1.54,2.926,5.577,5.065,11.989,6.351,6.239,1.251,6.784,1.294,18.552,1.467,6,.087,11.16.2,11.476.26.79.138,8.5.86,11.189,1.047,4.64.322,14.659.217,24.688-.261,5.409-.258,12.5-.564,15.764-.681,3.4-.122,7.184-.372,8.868-.586,16.547-2.1,34.719-11.318,42.476-21.549a26.934,26.934,0,0,0,2.038-3.4,16.471,16.471,0,0,0,1.077-2.67M7.84,68.283l.015.031a13.813,13.813,0,0,0,4.09,4.777,35.989,35.989,0,0,0,6.478,3.868l.5.117-.253-1.208a12.221,12.221,0,0,1-.258-1.811c-.008-1.22,1.5-5.149,2.128-5.536.151-.093.191-.043.118.147a19.819,19.819,0,0,0-.322,2.183c-.116,1.043-.309,2.728-.429,3.746a14.168,14.168,0,0,0-.135,1.5,14.621,14.621,0,0,0-1.36,4.335,12.194,12.194,0,0,0,.258,1.81l.253,1.209-.5-.118a35.93,35.93,0,0,1-6.478-3.868,13.81,13.81,0,0,1-4.09-4.776,5.232,5.232,0,0,1-.639-3.224,5.147,5.147,0,0,1,.624-3.177M120.448,53.127a35.732,35.732,0,0,0-4.057-8.379,7.106,7.106,0,0,1-.946-1.628,20.243,20.243,0,0,1,3.741.378,26.871,26.871,0,0,1,1.958,5.972,4.918,4.918,0,0,1-.7,3.657m-80.1-7.264c.544-.084,1.266-.177,1.809-.23l1.278-.125-1.325,2.62a30.833,30.833,0,0,0-1.823,4.288,6.168,6.168,0,0,1-.661-3.808,19.833,19.833,0,0,1,.722-2.745" fill="#f4eded" fill-rule="evenodd"/>
      <path id="路径_7" data-name="路径 7" d="M41.74,89.516a39.532,39.532,0,0,1-6.971-1.5A13.827,13.827,0,0,1,29,84.67,6.2,6.2,0,0,1,26.761,79.4a7.685,7.685,0,0,1,.23-2.1c.19-.409.208-.322.124.594-.441,4.786,2.875,7.943,9.815,9.341,5.68,1.145,19.467,1.384,28.144.486,1.836-.189-.011.271-2.612.651C54.5,89.536,46.008,90,41.74,89.516" fill="#f1f3f4" fill-rule="evenodd"/>
      <path id="路径_8" data-name="路径 8" d="M137.667,82.875a20.816,20.816,0,0,1,2.094-.977,53.815,53.815,0,0,0,15.384-9.939,31.853,31.853,0,0,0,7.221-9.655c1.192-2.433,1.21-1.851.035,1.128a30.123,30.123,0,0,1-10.628,13.3,54.259,54.259,0,0,1-11.091,5.338c-2.978.992-3.33,1.086-3.015.806" fill="#f1f3f4" fill-rule="evenodd"/>
      <path id="路径_9" data-name="路径 9" d="M91.309,66.7a98.656,98.656,0,0,0,16.716-2.6c6.249-1.594,9.976-3.562,11.1-5.863a2.535,2.535,0,0,0,.269-2.334A30.559,30.559,0,0,0,114.954,45.7c-5.777-8.449-15.353-13.775-27.273-15.17a67.624,67.624,0,0,0-16.487.5c-14.505,2.3-25.4,10.4-29.179,21.69-1.174,3.506-.873,5.1,1.344,7.129,4.063,3.723,14.305,6.28,28.5,7.118,3.986.235,15.367.08,19.446-.265" fill="#fcd052" fill-rule="evenodd"/>
      <path id="路径_10" data-name="路径 10" d="M56.055,36.222a44.062,44.062,0,0,1,15.139-5.2,67.672,67.672,0,0,1,16.487-.494c11.92,1.394,21.5,6.721,27.273,15.17A30.559,30.559,0,0,1,119.4,55.907a2.535,2.535,0,0,1-.269,2.334c-.761,1.553-2.706,2.955-5.814,4.192a6.47,6.47,0,0,0,2.269-2.384,2.538,2.538,0,0,0,.27-2.334A30.559,30.559,0,0,0,111.41,47.51c-5.777-8.449-15.353-13.775-27.274-15.17a67.673,67.673,0,0,0-16.487.494,45.926,45.926,0,0,0-11.594,3.388" fill="#ffe18a" fill-rule="evenodd"/>
      <path id="路径_11" data-name="路径 11" d="M46.34,58.62a5.58,5.58,0,0,1-.874-3.644c.48-3.844,2.863-7.735,7.262-11.859a29.762,29.762,0,0,1,4.121-3.438c0,.046-.948,1.193-2.108,2.547-3.274,3.825-7.309,9.634-8.053,11.592a6.982,6.982,0,0,0-.111,4.689c.406.751.305.8-.237.113" fill="#f1f3f4" fill-rule="evenodd"/>
      <path id="路径_12" data-name="路径 12" d="M77.833,56.122c-1.837-.612-3.708-2.927-3.224-3.989.318-.7,1.1-.626,1.519.138a4.916,4.916,0,0,0,1.95,2.075A4.52,4.52,0,0,0,79.8,54.5c1.329-.1,1.973-.578,2.836-2.121.54-.967,1.169-1.308,1.661-.9.425.353.344.94-.28,2.028-1.413,2.464-3.711,3.436-6.185,2.614" fill="#f1f3f4" fill-rule="evenodd"/>
      <path id="路径_13" data-name="路径 13" d="M63.539,49.326a2.931,2.931,0,0,1-1.125-2.343,3.213,3.213,0,0,1,1.3-2.474,1.51,1.51,0,0,1,1.727-.022,3.029,3.029,0,0,1,.13,4.909A1.567,1.567,0,0,1,63.539,49.326Z" fill="#f1f3f4" fill-rule="evenodd"/>
      <path id="路径_14" data-name="路径 14" d="M97.658,49.4a3.175,3.175,0,0,1-.466-4.44,1.931,1.931,0,0,1,2.9,0c1.844,2.209-.157,5.864-2.431,4.44" fill="#f1f3f4" fill-rule="evenodd"/>
      <path id="路径_15" data-name="路径 15" d="M137.892,40.314a12.89,12.89,0,0,1-.842-2.308c-.832-2.786-1.58-4.315-2.619-5.351a7.851,7.851,0,0,0-3.311-1.9c-.377,0-.869-.481-.776-.759.035-.1-.094-.314-.286-.465a.7.7,0,0,1-.3-.719c.064-.632.438-.828.975-.511.415.245.447.24,1.315-.193,1.8-.9,3.28-3.187,4.076-6.291.444-1.728.537-1.905,1-1.905.449,0,.588.209.866,1.3a6.467,6.467,0,0,0,2.594,4.046,6.57,6.57,0,0,0,1.616.871c.812.241,1.158.165,2.055-.452.442-.3.592-.34.843-.206.455.244.389.836-.15,1.339a1.791,1.791,0,0,1-.623.43c-.092,0-.052.072.089.154a.671.671,0,0,1,.256.552c0,.318-.191.556-.907,1.128-2.328,1.864-3.986,5.39-4.4,9.358-.124,1.2-.233,1.667-.435,1.869a.663.663,0,0,1-1.039.012" fill="#fff" fill-rule="evenodd"/>
      <path id="路径_16" data-name="路径 16" d="M40.107,37.78c-.687-.358-7.476-4.47-9.645-6.223a62.456,62.456,0,0,1-7.2-7.48c-1.13-1.633-.445-3.586,1.434-4.969,3.288-2.42,5.485-2.273,8.606,1.649a51.783,51.783,0,0,1,5.721,8.992c.991,1.855,3.433,7.439,2.861,7.957a1.426,1.426,0,0,1-1.779.074" fill="#fff" fill-rule="evenodd"/>
      <path id="路径_17" data-name="路径 17" d="M138.313,34.454A11.423,11.423,0,0,1,141.241,29l.788-.776-.5-.075a6.288,6.288,0,0,1-1.349-.482,6.517,6.517,0,0,1-2.607-2.468c-.259-.578-.365-.617-.471-.175a11.443,11.443,0,0,1-.6,1.389,7.337,7.337,0,0,1-2.57,2.973l-.619.35.795.4a6.364,6.364,0,0,1,2.905,2.936,16.285,16.285,0,0,1,.78,1.755,2.212,2.212,0,0,0,.234.583c.019-.02.145-.446.283-.952" fill="#fbea78" fill-rule="evenodd"/>
      <path id="路径_18" data-name="路径 18" d="M120.709,37.226a20.429,20.429,0,0,1-1.326-3.633c-1.309-4.386-2.487-6.794-4.122-8.424-1.328-1.325-4.234-2.994-5.213-2.994-.592,0-1.367-.758-1.221-1.195.055-.165-.148-.494-.45-.732a1.107,1.107,0,0,1-.48-1.133c.1-.994.69-1.3,1.535-.8.653.386.7.378,2.069-.305,2.828-1.413,5.164-5.016,6.418-9.9.7-2.721.845-3,1.581-3,.707,0,.926.329,1.363,2.051a10.178,10.178,0,0,0,4.084,6.369A10.41,10.41,0,0,0,127.49,14.9c1.279.379,1.824.259,3.236-.712.7-.478.931-.536,1.326-.325.718.384.613,1.316-.236,2.109a2.819,2.819,0,0,1-.98.676c-.145,0-.082.113.14.242a1.061,1.061,0,0,1,.4.87c0,.5-.3.875-1.427,1.776-3.666,2.933-6.275,8.485-6.922,14.731-.2,1.888-.367,2.624-.685,2.941a1.043,1.043,0,0,1-1.636.02" fill="#fff" fill-rule="evenodd"/>
      <path id="路径_19" data-name="路径 19" d="M36.541,30.979c-.663-1.25-1.678-3.057-2.255-4.015-2-3.323-4.663-6.481-5.463-6.481-.946,0-3.1,1.5-3.1,2.156,0,.447,3.026,3.623,5.375,5.643a77.827,77.827,0,0,0,6.488,4.963,10.915,10.915,0,0,0-1.048-2.266" fill="#fcd984" fill-rule="evenodd"/>
      <path id="路径_20" data-name="路径 20" d="M121.435,28.36c1.1-4.037,2.6-6.829,4.859-9.055l1.308-1.287-.823-.123a10.454,10.454,0,0,1-2.238-.8,10.813,10.813,0,0,1-4.328-4.1c-.429-.958-.606-1.024-.78-.29a19.057,19.057,0,0,1-1,2.3,12.168,12.168,0,0,1-4.266,4.934l-1.026.58,1.32.66a10.565,10.565,0,0,1,4.819,4.872,27.069,27.069,0,0,1,1.3,2.914,3.637,3.637,0,0,0,.389.967c.03-.033.24-.741.469-1.58" fill="#fbea78" fill-rule="evenodd"/>
      <path id="路径_21" data-name="路径 21" d="M45.822,31.225a7.672,7.672,0,0,1-1.5-1.47C43.3,28.49,38.435,19.416,36.1,14.422c-.844-1.8-2.03-4.311-2.636-5.573-1.552-3.236-1.788-3.9-1.8-5.1C31.65,2.42,32.147,1.886,34.406.8a6.383,6.383,0,0,1,3.9-.8c2.1,0,2.313.037,3.109.6A6.408,6.408,0,0,1,43.1,2.787c1.4,2.669,1.985,5.333,3.9,17.864.266,1.744.693,4.448.949,6.011.581,3.547.581,3.94,0,4.481a1.691,1.691,0,0,1-2.127.082" fill="#fff" fill-rule="evenodd"/>
      <path id="路径_22" data-name="路径 22" d="M137.921,28.654a1.732,1.732,0,0,1-.608-1.438c.135-.351.38-.181.526.364a1.978,1.978,0,0,0,.626.991c.471.435.474.444.173.444a1.364,1.364,0,0,1-.717-.361" fill="#f1f3f4" fill-rule="evenodd"/>
      <path id="路径_23" data-name="路径 23" d="M45.161,25.021c-.156-.953-.5-3.344-.771-5.313C42.932,9,42.067,5.269,40.735,3.937A1.652,1.652,0,0,0,39.3,3.456c-1.735,0-3.9,1.05-3.9,1.893a15.232,15.232,0,0,0,.989,2.709c.545,1.247,1.4,3.224,1.91,4.4,2.722,6.293,6.818,14.628,7.066,14.379a9.985,9.985,0,0,0-.205-1.811" fill="#fcd984" fill-rule="evenodd"/>
      <path id="路径_24" data-name="路径 24" d="M120.784,18.736a2.876,2.876,0,0,1-1.009-2.386c.224-.583.631-.3.873.6a3.293,3.293,0,0,0,1.039,1.644c.782.721.787.735.288.735a2.258,2.258,0,0,1-1.191-.6" fill="#f1f3f4" fill-rule="evenodd"/>
      <path id="路径_25" data-name="路径 25" d="M61.045,51.594c2.228,0,4.037,1.51,4.037,3.369s-1.809,3.369-4.037,3.369-4.037-1.509-4.037-3.369,1.809-3.369,4.037-3.369" fill="#ff9b95" fill-rule="evenodd"/>
      <path id="路径_26" data-name="路径 26" d="M103.163,51.109c2.228,0,4.037,1.51,4.037,3.369s-1.809,3.369-4.037,3.369-4.037-1.509-4.037-3.369,1.809-3.369,4.037-3.369" fill="#ff9b95" fill-rule="evenodd"/>
      <path id="路径_27" data-name="路径 27" d="M77.028,95.082c-3.524-.148-6.954-.428-13.1-1.07-2.095-.218-5.375-.328-11.189-.373-10.261-.08-12.334-.168-15.683-.665-9.131-1.354-13.525-2.936-16.638-5.988a11.823,11.823,0,0,0-3.827-2.647C9.221,80.661,5.4,76.27,5.4,71.48c0-3.042,1.158-5.292,4.685-9.1a35.872,35.872,0,0,0,6.5-9.574c1.941-3.9,2.758-4.852,5.2-6.078,2.323-1.168,5.949-1.837,11.636-2.148,2-.109,4.929-.323,6.511-.475s3.289-.276,3.791-.276c.838,0,.974-.068,1.618-.811a35.258,35.258,0,0,1,12.179-9.523c6.8-3.34,14.5-4.965,23.621-4.983,2.051,0,4.676.087,5.833.2,10.209,1.013,18.857,4.774,25.055,10.9l1.531,1.511,2.2.2a91.543,91.543,0,0,1,14.058,2.512,67.9,67.9,0,0,0,11.485,2.1c14.6,1.638,21.8,3.524,25.966,6.8a7.626,7.626,0,0,1,2.74,4.249,9.547,9.547,0,0,1,.538,3.965,9.471,9.471,0,0,1-.633,4.112,23.532,23.532,0,0,1-1.31,3.06c-5.425,9.831-20.713,19.485-37.526,23.7-5.658,1.418-8.965,1.839-16.657,2.12-3,.11-8.205.329-11.571.486-16.7.781-20.568.88-25.82.658M98.178,92.9c5.408-.257,12.5-.564,15.763-.681,3.4-.122,7.184-.372,8.869-.585,16.547-2.1,34.718-11.318,42.476-21.55a26.873,26.873,0,0,0,2.037-3.4c1.919-3.821,2.092-7.2.53-10.361-.878-1.778-1.842-2.632-4.375-3.878-4.194-2.062-10.007-3.342-20.893-4.6a84.329,84.329,0,0,1-12-2.019l-3.252-.862c-2.518-.666-11.643-2.079-11.883-1.839a7.079,7.079,0,0,0,.945,1.628,32.966,32.966,0,0,1,4.754,11.091c.4,2.325-.51,4.131-2.99,5.963-6.112,4.515-22.834,7.364-41.223,7.022-19.321-.358-32.71-3.847-36.313-9.462a6.328,6.328,0,0,1-.992-4.384,25.2,25.2,0,0,1,2.483-6.85l1.326-2.62-1.279.125c-.7.068-1.708.2-2.234.3s-2.484.22-4.352.274c-7.617.219-12.467,1.239-14.657,3.082-.885.745-1.52,1.746-3.23,5.092a34.63,34.63,0,0,1-5.626,8.352c-2.811,3.125-3.373,3.856-4.13,5.374a5.242,5.242,0,0,0-.711,3.351,5.234,5.234,0,0,0,.639,3.225,13.8,13.8,0,0,0,4.09,4.776,35.9,35.9,0,0,0,6.478,3.868l.5.118-.253-1.209a12.32,12.32,0,0,1-.257-1.81c-.008-1.221,1.5-5.149,2.128-5.536.15-.093.19-.043.118.147a19.776,19.776,0,0,0-.322,2.183c-.117,1.042-.31,2.728-.43,3.746-.215,1.828-.211,1.864.3,2.9,1.473,3.011,5.54,5.206,12.072,6.516,6.239,1.252,6.785,1.295,18.553,1.467,6,.088,11.16.205,11.475.26.79.139,8.5.86,11.189,1.047,4.641.323,14.659.217,24.689-.261M41.74,89.516a39.423,39.423,0,0,1-6.971-1.5A13.821,13.821,0,0,1,29,84.67,6.2,6.2,0,0,1,26.76,79.4a7.721,7.721,0,0,1,.231-2.1c.19-.409.208-.322.123.594-.44,4.786,2.876,7.943,9.815,9.341,5.681,1.145,19.468,1.384,28.145.487,1.836-.19-.011.27-2.613.65C54.5,89.536,46.008,90.006,41.74,89.516m95.927-6.641a20.938,20.938,0,0,1,2.094-.977,53.78,53.78,0,0,0,15.384-9.939,31.853,31.853,0,0,0,7.221-9.655c1.192-2.433,1.21-1.85.035,1.128a30.123,30.123,0,0,1-10.628,13.3,54.259,54.259,0,0,1-11.091,5.338c-2.978.992-3.33,1.086-3.015.806M91.309,66.7a98.656,98.656,0,0,0,16.716-2.6c6.249-1.594,9.976-3.562,11.1-5.863a2.538,2.538,0,0,0,.27-2.334,30.566,30.566,0,0,0-4.442-10.2c-5.777-8.45-15.353-13.776-27.274-15.171a67.624,67.624,0,0,0-16.487.5c-14.505,2.3-25.4,10.4-29.179,21.69-1.173,3.506-.873,5.1,1.345,7.13,4.062,3.722,14.305,6.28,28.5,7.117,3.986.235,15.367.08,19.445-.265M46.34,58.621a5.583,5.583,0,0,1-.874-3.645c.48-3.844,2.863-7.734,7.263-11.859a29.756,29.756,0,0,1,4.12-3.437c0,.046-.948,1.192-2.107,2.546-3.275,3.826-7.31,9.635-8.053,11.593a6.973,6.973,0,0,0-.111,4.688c.406.752.305.8-.238.114m31.493-2.5c-1.837-.612-3.708-2.927-3.224-3.989.318-.7,1.1-.626,1.519.139a4.922,4.922,0,0,0,1.95,2.075A4.54,4.54,0,0,0,79.8,54.5c1.329-.1,1.973-.578,2.836-2.121.54-.968,1.169-1.309,1.661-.9.425.352.344.939-.28,2.028-1.413,2.463-3.711,3.436-6.185,2.613m-14.293-6.8a2.928,2.928,0,0,1-1.125-2.343A3.215,3.215,0,0,1,63.71,44.51a1.51,1.51,0,0,1,1.727-.022,3.027,3.027,0,0,1,.13,4.908A1.565,1.565,0,0,1,63.54,49.327Zm34.118.073a3.175,3.175,0,0,1-.466-4.44,1.931,1.931,0,0,1,2.9,0c1.844,2.209-.157,5.864-2.431,4.44" fill="#2d1717" fill-rule="evenodd"/>
      <path id="路径_28" data-name="路径 28" d="M39.27,36.673c-.611-.319-6.2-4.451-8.126-6.009a60.08,60.08,0,0,1-6.6-6.444c-1-1.451-.64-2.913,1.031-4.142,2.921-2.151,4.478-1.786,7.252,1.7a45.956,45.956,0,0,1,5.084,7.991c.882,1.65,1.983,3.66,2.448,4.467.944,1.64,1,1.911.492,2.372a1.269,1.269,0,0,1-1.581.065m-2.729-5.695c-.663-1.25-1.678-3.057-2.254-4.014-2-3.324-4.663-6.482-5.464-6.482-.946,0-3.1,1.5-3.1,2.156,0,.447,3.026,3.624,5.376,5.644a77.529,77.529,0,0,0,6.488,4.962,10.956,10.956,0,0,0-1.049-2.266m8.721-1.523a6.57,6.57,0,0,1-1.235-1.3,148.521,148.521,0,0,1-6.753-13.573c-.693-1.6-1.667-3.816-2.165-4.933C33.834,6.784,33.64,6.193,33.63,5.133c-.011-1.176.4-1.649,2.254-2.612a4.935,4.935,0,0,1,3.207-.706c1.727,0,1.9.033,2.554.532A5.635,5.635,0,0,1,43.03,4.282c1.153,2.362,1.63,4.721,3.2,15.813.218,1.543.569,3.937.78,5.321.477,3.14.477,3.487,0,3.966A1.313,1.313,0,0,1,45.262,29.455Zm-.1-4.434c-.156-.953-.5-3.344-.771-5.313C42.932,9,42.067,5.269,40.735,3.937A1.652,1.652,0,0,0,39.3,3.456c-1.735,0-3.9,1.05-3.9,1.893a15.232,15.232,0,0,0,.989,2.709c.545,1.247,1.4,3.224,1.91,4.4,2.722,6.293,6.818,14.628,7.066,14.379a9.985,9.985,0,0,0-.205-1.811" fill="#2d1717" fill-rule="evenodd"/>
      <path id="路径_29" data-name="路径 29" d="M120.628,34.667a17.148,17.148,0,0,1-1.112-3.047c-1.1-3.679-2.086-5.7-3.458-7.066-1.114-1.111-3.551-2.511-4.372-2.511-.5,0-1.147-.636-1.025-1,.046-.138-.124-.414-.377-.613a.93.93,0,0,1-.4-.95c.084-.834.579-1.093,1.288-.674.547.323.589.317,1.736-.256,2.372-1.185,4.331-4.208,5.383-8.306.585-2.282.708-2.515,1.326-2.515.593,0,.776.276,1.143,1.72a8.537,8.537,0,0,0,3.426,5.342,8.723,8.723,0,0,0,2.133,1.151c1.073.318,1.53.218,2.714-.6.584-.4.781-.45,1.113-.273.6.322.513,1.1-.2,1.769a2.379,2.379,0,0,1-.823.568c-.121,0-.069.094.118.2a.888.888,0,0,1,.338.729c0,.42-.252.734-1.2,1.49-3.075,2.46-5.264,7.117-5.806,12.356-.165,1.583-.308,2.2-.574,2.467a.876.876,0,0,1-1.373.016m.807-6.307c1.1-4.037,2.6-6.83,4.859-9.055l1.308-1.287-.823-.124a10.46,10.46,0,0,1-2.238-.8,10.82,10.82,0,0,1-4.328-4.1c-.429-.959-.606-1.024-.78-.29a19.136,19.136,0,0,1-1,2.3,12.183,12.183,0,0,1-4.265,4.935l-1.027.579,1.32.661a10.561,10.561,0,0,1,4.819,4.872,27.157,27.157,0,0,1,1.3,2.913,3.655,3.655,0,0,0,.389.968c.03-.034.241-.741.469-1.58m-.651-9.624a2.876,2.876,0,0,1-1.009-2.386c.224-.583.631-.3.873.6a3.293,3.293,0,0,0,1.039,1.644c.782.721.787.735.288.735a2.258,2.258,0,0,1-1.191-.6" fill="#2d1717" fill-rule="evenodd"/>
      <path id="路径_30" data-name="路径 30" d="M137.827,38.254a10.283,10.283,0,0,1-.67-1.836,9.66,9.66,0,0,0-2.084-4.258,6.243,6.243,0,0,0-2.635-1.513c-.3,0-.691-.383-.617-.6.028-.083-.075-.25-.228-.37a.561.561,0,0,1-.242-.573c.05-.5.348-.658.776-.406.33.195.355.191,1.046-.154,1.429-.714,2.61-2.536,3.243-5.005.354-1.376.428-1.516.8-1.516.357,0,.468.166.689,1.037a5.144,5.144,0,0,0,2.064,3.219,5.233,5.233,0,0,0,1.286.693c.646.192.922.132,1.635-.359.352-.242.471-.271.671-.165.362.194.309.666-.12,1.066a1.428,1.428,0,0,1-.495.342c-.074,0-.042.057.07.123a.534.534,0,0,1,.2.439c0,.253-.152.442-.721.9-1.853,1.482-3.172,4.289-3.5,7.446-.1.954-.186,1.326-.346,1.487a.528.528,0,0,1-.827.009m.486-3.8A11.433,11.433,0,0,1,141.242,29l.788-.776-.5-.074a6.277,6.277,0,0,1-1.348-.483,6.514,6.514,0,0,1-2.608-2.468c-.258-.577-.365-.617-.47-.175a11.361,11.361,0,0,1-.6,1.389,7.333,7.333,0,0,1-2.57,2.974l-.619.349.8.4a6.367,6.367,0,0,1,2.9,2.936,16.373,16.373,0,0,1,.78,1.756,2.17,2.17,0,0,0,.235.583c.018-.021.144-.447.282-.953m-.392-5.8a1.732,1.732,0,0,1-.608-1.438c.135-.351.38-.181.526.364a1.978,1.978,0,0,0,.626.991c.471.435.474.444.173.444a1.364,1.364,0,0,1-.717-.361" fill="#2d1717" fill-rule="evenodd"/>
    </g>
  </g>
</svg>
