<?xml version="1.0" encoding="UTF-8" standalone="no"?><svg xmlns="http://www.w3.org/2000/svg" xmlns:xlink="http://www.w3.org/1999/xlink" width="294.811" height="286.429" viewBox="0 0 294.811 286.429">
  <defs>
    <clipPath id="clip-path">
      <rect id="矩形_33" data-name="矩形 33" width="245.497" height="233.988" fill="none"/>
    </clipPath>
  </defs>
  <g id="组_24" data-name="组 24" transform="translate(-921.877 550.726) rotate(14)">
    <g id="组_23" data-name="组 23" transform="translate(816.186 -771.084)" clip-path="url(#clip-path)">
      <path id="路径_191" data-name="路径 191" d="M123.252,233.974c-23.679.03-44.049-4.658-62.9-14.928C27.78,201.309,8.91,173.838,3.318,137.217c-.412-2.7-.7-5.421-.877-8.144a57.591,57.591,0,0,0-1.391-9.506C-.54,112.74-.141,105.818,1.031,98.959a96.564,96.564,0,0,1,10.7-30.331C31.208,33.153,60.72,10.642,100.344,2.558,157.8-9.164,212.336,20.324,235.439,72.179a113.6,113.6,0,0,1,10.055,45.845c.2,30.416-10.463,56.6-31.8,78.27-17.628,17.9-39.063,29.034-63.478,34.557a117.763,117.763,0,0,1-26.965,3.123m-23.8-220.1c-.195.376-.319.512-.329.655a4.23,4.23,0,0,0,.033.962c.521,3.181-1.036,5.231-3.664,6.658C93.369,23.3,91.221,24.4,89.076,25.5c-6.723,3.444-13.519,6.753-20.161,10.346a164.524,164.524,0,0,0-27.24,18.174,73.894,73.894,0,0,0-21.147,28.91,96.7,96.7,0,0,0-6.161,52.994c5.493,34.948,24.161,60.419,56.147,75.7C92.3,222.033,115.3,225.009,139.17,221.5a117.959,117.959,0,0,0,54.272-22.33c16.11-12.03,28.117-27.254,35.018-46.252,7.867-21.656,7.885-43.564.8-65.326-11.079-34.048-33.225-57.873-67.013-70.353-17.705-6.539-36.013-7.948-54.635-5.206-2.795.412-5.754.5-8.168,1.845" transform="translate(0 0)" fill="#e5332a"/>
      <path id="路径_192" data-name="路径 192" d="M407.653,672.2c-.09,4.079-3.617,6.447-7.117,5.183-1.76-.636-2.816-2.041-4.035-3.321-3.207-3.369-6.184-7.047-9.786-9.936-17.936-14.389-38.095-18.413-60.2-12.011a36.236,36.236,0,0,0-19.348,13.642,16.91,16.91,0,0,1-2.163,2.566,4.154,4.154,0,0,1-4.922.666,4.373,4.373,0,0,1-2.533-4.311,9.94,9.94,0,0,1,.636-2.794,24.854,24.854,0,0,1,7.227-10.636,49.628,49.628,0,0,1,17.555-9.772c23.314-7.7,51.437-2.293,70.371,13.521a84.884,84.884,0,0,1,12.424,12.745,6.979,6.979,0,0,1,1.887,4.46" transform="translate(-230.198 -493.598)" fill="#e5332a"/>
      <path id="路径_193" data-name="路径 193" d="M381.881,355.324a16.275,16.275,0,0,1-2.286,8.967c-2.019,3.348-4.849,5.528-8.969,5.449s-6.826-2.365-8.774-5.764a8.49,8.49,0,0,1-.781-1.752c-.918-3.057-1.884-6.1-2.669-9.195a10.478,10.478,0,0,1,2.84-10.171,10.769,10.769,0,0,1,16.475.255,18.56,18.56,0,0,1,4.164,12.21" transform="translate(-277.007 -262.385)" fill="#e5332a"/>
      <path id="路径_194" data-name="路径 194" d="M643.275,367.817a17.212,17.212,0,0,1-2.155,9.175c-3.8,6.641-11.58,7.219-16.348,1.2a13.078,13.078,0,0,1-2.149-3.734,55,55,0,0,1-2.523-8.767c-.787-4.708,1.148-8.522,4.965-11.267a12.166,12.166,0,0,1,9.6-2.146,5.12,5.12,0,0,1,3.681,2.081c2.6,4.261,5.125,8.578,4.928,13.456" transform="translate(-479.606 -272.367)" fill="#e5332a"/>
      <path id="路径_195" data-name="路径 195" d="M586.46,250.625c-4.759.147-7.436-3.517-5.905-7.151a9.785,9.785,0,0,1,2.534-3.41,105.475,105.475,0,0,1,16.066-11.321,9.8,9.8,0,0,1,3.594-1.233,4.971,4.971,0,0,1,4.974,2.26,4.584,4.584,0,0,1,.046,5.417,12.462,12.462,0,0,1-2.965,3.058q-7.553,5.515-15.245,10.839a18.946,18.946,0,0,1-3.1,1.541" transform="translate(-448.813 -175.973)" fill="#e5332a"/>
      <path id="路径_196" data-name="路径 196" d="M395.483,239.612a4.8,4.8,0,0,1-4.86,4.89,6.79,6.79,0,0,1-4.461-1.544c-4.148-3.283-8.292-6.577-12.31-10.016a23.294,23.294,0,0,1-3.727-4.376,3.742,3.742,0,0,1,.1-4.509,3.829,3.829,0,0,1,3.719-1.753,8.025,8.025,0,0,1,2.766.688,54.682,54.682,0,0,1,7.124,3.923c3.006,2.123,5.8,4.556,8.619,6.933a7.4,7.4,0,0,1,3.034,5.764" transform="translate(-285.798 -171.968)" fill="#e5332a"/>
    </g>
  </g>
</svg>
