<?xml version="1.0" encoding="UTF-8" standalone="no"?><svg id="组_6" data-name="组 6" xmlns="http://www.w3.org/2000/svg" xmlns:xlink="http://www.w3.org/1999/xlink" width="66.974" height="119.937" viewBox="0 0 66.974 119.937">
  <defs>
    <clipPath id="clip-path">
      <rect id="矩形_24" data-name="矩形 24" width="66.974" height="119.937" fill="none"/>
    </clipPath>
  </defs>
  <g id="组_5" data-name="组 5" clip-path="url(#clip-path)">
    <path id="路径_50" data-name="路径 50" d="M21.723,119.895c-12.2-.82-16.036-1.2-16.744-1.663-1.488-.971-2.576-3.692-3.379-8.456C.436,102.875,0,94.363,0,78.48,0,60.6,1.018,32.929,1.727,31.568c.8-1.53,5.151-6.059,7.525-7.827,3.611-2.689,4.915-3.1,10.767-3.36,2.519-.114,6.383-.26,7.34-.325,0,0,2.062-10.616,4.372-13.845C34.885,1.8,55.868-.428,56.25.068c1.52,1.97.877,5.2.714,5.429-.4.573-2.691,1.317-8.62,2.8-1.951.489-8.678,2.081-9.407,2.753-1.391,1.282-3.116,8.447-3.116,8.82,0,.03,3.531-.212,10.238-.214,12.378,0,14.742.111,17.316.843A2.431,2.431,0,0,1,65.5,22.854c.107,1.077.479,11.736,1.086,31.142.443,14.146.525,41.361.13,43.245-.594,2.838-4.372,9.384-8.074,13.991-3.192,3.971-5.859,6.036-7.8,6.039a4.647,4.647,0,0,0-1.842.42,26.093,26.093,0,0,1-6.723,1.737c-2.4.382-3.874.447-11.076.493-4.569.029-8.835.017-9.479-.026" fill="#fff" fill-rule="evenodd"/>
    <path id="路径_51" data-name="路径 51" d="M40.859,113.583c5.908-.84,8.655-2.166,8.945-4.32.515-3.82.982-32,.832-50.218-.127-15.488-.382-21.945-.9-22.776-.089-.144-.746-.153-2.111-.03-1.948.177-8.7.551-19.644,1.089-10.274.506-18.125.327-21.36-.486l-1.316-.33-.123,1.983c-.068,1.091-.257,5.1-.42,8.9C3.14,85.227,4.343,110.311,7.891,112.55c.435.274,7.061.9,13.741,1.3a187.835,187.835,0,0,0,19.227-.269" fill="#fcd984" fill-rule="evenodd"/>
    <path id="路径_52" data-name="路径 52" d="M56.479,105.3a54.228,54.228,0,0,0,4.967-7.886l.857-1.724-.4-.535c-.6-.793-.75-.758-1.219.277-.234.517-.861,1.7-1.393,2.62-1.484,2.576-6.234,10.937-6.341,11.159-.219.457,2.272-2.3,3.531-3.911" fill="#e58e23" fill-rule="evenodd"/>
    <path id="路径_53" data-name="路径 53" d="M56.251,99.764c1.23-2.155,2.531-4.563,2.892-5.35.836-1.827,1.426-2.158,2.714-1.524a2.212,2.212,0,0,0,.928.321c.228-.226.257-15.594.048-25.179-.344-15.825-.984-35.052-1.184-35.58-.162-.43-.195-.4-.41.422-.846,3.221-1.807,5.573-2.463,6.03-.624.435-.862.37-2.137-.585-1.455-1.088-4.312-2.244-4.584-1.854a8.584,8.584,0,0,0-.071,2.334c.463,8.689.548,15.209.443,33.677-.1,18-.323,29.961-.621,33.775l-.109,1.382,1.159-1.975c.637-1.085,2.162-3.733,3.4-5.894" fill="#ffbb2c" fill-rule="evenodd"/>
    <path id="路径_54" data-name="路径 54" d="M62.968,85.525c-.018,4.373-.08,7.584-.183,7.686a2.21,2.21,0,0,1-.928-.32c-1.289-.635-1.879-.3-2.715,1.523-.36.787-1.662,3.195-2.892,5.35s-2.758,4.81-3.4,5.895L51.7,107.634l.108-1.383c.3-3.814.518-15.773.621-33.775.106-18.468.02-24.987-.443-33.676a8.571,8.571,0,0,1,.072-2.335c.158-.227,1.2.072,2.323.576.247,6.638.283,13.771.2,28.365-.1,18-.323,29.961-.622,33.775l-.108,1.382,1.159-1.975c.637-1.085,2.162-3.733,3.4-5.894s2.531-4.563,2.892-5.35c.572-1.251,1.029-1.8,1.674-1.819" fill="#ff962c" fill-rule="evenodd"/>
    <path id="路径_55" data-name="路径 55" d="M25.4,99.03a26.909,26.909,0,0,1-6.62-1.816,17.259,17.259,0,0,1-5.489-5.18c-4.238-6.339-4.587-13.62-.907-18.943,2.078-3,6.1-5.681,10.745-7.154.922-.292,1.7-.546,1.722-.565a9.915,9.915,0,0,0-.244-1.4A14.117,14.117,0,0,1,29,50.642c2.243-2.109,3.084-2.541,3.643-1.871.384.461.077,1.135-.812,1.78a22.6,22.6,0,0,0-2.251,2.1,13.1,13.1,0,0,0-3.062,5.178l-.206.766,1.43-1.371a23.342,23.342,0,0,1,2.323-1.973A22.5,22.5,0,0,1,37.935,52.1c.936-.11,1.048-.079,1.348.376.74,1.125-.536,4.807-2.365,6.821a19.528,19.528,0,0,1-7.946,4.959c-1.706.623-1.677.711.3.9A25.1,25.1,0,0,1,38.7,68.882,20.132,20.132,0,0,1,43.747,74.1c2.443,4.115,2.62,9.028.514,14.267-2.239,5.57-5.909,8.967-11.118,10.291a26.361,26.361,0,0,1-7.74.373" fill="#f1f3f4" fill-rule="evenodd"/>
    <path id="路径_56" data-name="路径 56" d="M30.96,97.257c6.195-.878,10.593-5.067,12.436-11.844a15.755,15.755,0,0,0-.015-7.876c-1.3-3.939-5.049-7.466-9.99-9.391C29.675,66.7,27.5,66.5,24.618,67.339c-6.558,1.909-10.636,5.209-12.369,10.009a15.562,15.562,0,0,0-.079,8.065c1.172,4.305,4.29,8.619,7.345,10.161A25.446,25.446,0,0,0,26.3,97.327a21.362,21.362,0,0,0,4.664-.07" fill="#ffbb2c" fill-rule="evenodd"/>
    <path id="路径_57" data-name="路径 57" d="M14.488,73.378a16.44,16.44,0,0,0,.165,7.225c1.172,4.305,4.29,8.618,7.345,10.161a25.484,25.484,0,0,0,6.781,1.753,21.423,21.423,0,0,0,4.664-.07,13.913,13.913,0,0,0,9.511-5.6c-2.05,5.93-6.249,9.591-11.993,10.4a21.3,21.3,0,0,1-4.664.07,25.445,25.445,0,0,1-6.782-1.752c-3.054-1.543-6.172-5.856-7.344-10.161a15.566,15.566,0,0,1,.079-8.066,13.471,13.471,0,0,1,2.238-3.969" fill="#ff912c" fill-rule="evenodd"/>
    <path id="路径_58" data-name="路径 58" d="M30.6,79.26a1.423,1.423,0,0,1-.1-1.708c.324-.323.952-.3.952.035a.829.829,0,0,1-.3.522c-.272.225-.272.285,0,.583a1.3,1.3,0,0,1,.3.445c0,.227-.531.3-.855.123" fill="#f1f3f4" fill-rule="evenodd"/>
    <path id="路径_59" data-name="路径 59" d="M33.448,73.378a1.007,1.007,0,0,1,.87-1.593c.9,0,1.564,1.561.794,1.855-.567.217-.67.128-.55-.472.094-.464.049-.593-.2-.593-.226,0-.323.177-.323.593,0,.672-.282.775-.588.21" fill="#f1f3f4" fill-rule="evenodd"/>
    <path id="路径_60" data-name="路径 60" d="M29.158,72.449c.156-.709-.322-1.3-.727-.893-.174.173-.172.286.009.466.363.361.284.75-.152.75-.4,0-.8-.533-.8-1.073,0-.474.735-1.1,1.293-1.1.349,0,.618.192.895.641.479.776.441,1.09-.179,1.5-.466.308-.469.305-.338-.291" fill="#f1f3f4" fill-rule="evenodd"/>
    <path id="路径_61" data-name="路径 61" d="M28.232,62.616C33.006,61,36.858,57.69,37.5,54.649c.167-.783.118-.787-1.807-.144a16.279,16.279,0,0,0-8.636,6.287c-.767,1.181-1.011,2.3-.5,2.3a11.5,11.5,0,0,0,1.673-.477" fill="#85c58e" fill-rule="evenodd"/>
    <path id="路径_62" data-name="路径 62" d="M58.38,36.088a56.993,56.993,0,0,0,1.77-6.868l.139-.988-1.666,1.58a38.721,38.721,0,0,1-4.806,4.038l-.959.645,1.566.628a21.919,21.919,0,0,1,2.448,1.157,5.647,5.647,0,0,0,1.04.536c.087,0,.3-.323.468-.728" fill="#e58e23" fill-rule="evenodd"/>
    <path id="路径_63" data-name="路径 63" d="M28.281,35.542c3.22-.16,7.194-.381,8.832-.493s4.808-.288,7.045-.393a43.019,43.019,0,0,0,4.863-.414,18.224,18.224,0,0,0,5.262-2.96,72.306,72.306,0,0,0,6.546-6.337c0-.2-.478-.317-2.381-.582-2.006-.279-15.343-.433-20.641-.238l-4.267.157-.271,1.671c-.208,1.274-.216,1.69-.037,1.749.384.128.615.975.411,1.509-.237.622-1,1.007-2.546,1.286-2.731.493-4.507-.166-4-1.486a20.129,20.129,0,0,0,.821-4.443A102.237,102.237,0,0,0,17.279,25c-3.138.51-7.669,3.853-10.9,8.044-.82,1.062-.925,1.293-.694,1.523.388.384,2.369.852,4.45,1.051,2.884.275,11.855.24,18.151-.072" fill="#ffbb2c" fill-rule="evenodd"/>
    <path id="路径_64" data-name="路径 64" d="M58.5,24.37c1.858.26,2.328.377,2.328.575a72.622,72.622,0,0,1-6.547,6.337,18.272,18.272,0,0,1-5.262,2.96,43.363,43.363,0,0,1-4.863.413c-2.237.1-5.408.283-7.045.394s-5.612.333-8.832.492c-6.3.312-15.267.348-18.151.072-2.081-.2-4.062-.667-4.449-1.051-.232-.23-.127-.461.693-1.523.561-.726,1.161-1.427,1.785-2.092a21.139,21.139,0,0,0,3.134.524c2.885.276,11.856.24,18.152-.071,3.22-.16,7.194-.382,8.831-.493s4.808-.289,7.046-.394a43.31,43.31,0,0,0,4.862-.413,18.275,18.275,0,0,0,5.263-2.96c.659-.533,1.86-1.633,3.055-2.77M34.84,24.234a1.5,1.5,0,0,1-.033.834c-.181.474-.665.81-1.567,1.066.009-.058.019-.119.029-.181l.271-1.671Z" fill="#ff962c" fill-rule="evenodd"/>
    <path id="路径_65" data-name="路径 65" d="M32,22.2l.777-3.821c1.377-6.773,2.085-8.833,3.287-9.571,1.314-.807,4.54-1.794,12.293-3.761C50.939,4.4,53.4,3.7,53.815,3.511l.763-.349-.858-.069c-1.749-.14-8.6,1.506-15.417,3.7-3.708,1.195-3.92,1.358-4.842,3.738a97.552,97.552,0,0,0-2.975,11.26l-.006,0-.9,4.417c-.188,1-.384,1.982-.435,2.172-.08.292.045.346.8.346a1.8,1.8,0,0,0,1.021-.2c.081-.131,1.05-6.314,1.05-6.314Z" fill="#f1f3f4" fill-rule="evenodd"/>
    <path id="路径_66" data-name="路径 66" d="M22.525,115.705c-11.368-.764-14.941-1.119-15.6-1.55-1.387-.9-2.4-3.439-3.148-7.878-1.085-6.43-1.49-14.361-1.491-29.16,0-16.658.948-42.442,1.609-43.71.743-1.426,4.8-5.645,7.011-7.292,3.365-2.506,4.58-2.885,10.032-3.131,2.347-.106,5-.243,5.889-.3l1.621-.111.323-1.514c1.171-5.478,2.7-10.731,3.692-12.7.855-1.691,1.325-1.975,5.489-3.313,8.972-2.885,15.5-4.253,17.172-3.6.515.2.546.282.546,1.457a3.308,3.308,0,0,1-.3,1.677c-.376.534-2.507,1.227-8.032,2.611-8.122,2.034-10.417,2.85-10.884,3.87a105.623,105.623,0,0,0-2.611,11.2c0,.029,5.113.05,11.362.048,11.533,0,13.735.1,16.135.786a2.265,2.265,0,0,1,1.983,2.192c.1,1,.446,10.935,1.012,29.016.412,13.181.489,38.538.121,40.294-.554,2.644-4.074,8.743-7.523,13.035-2.974,3.7-5.46,5.624-7.271,5.628a4.311,4.311,0,0,0-1.716.391,24.323,24.323,0,0,1-6.264,1.618c-2.237.356-3.609.417-10.32.46C27.1,115.757,23.126,115.746,22.525,115.705Zm18.334-2.123c5.908-.839,8.655-2.166,8.945-4.32.515-3.82.982-32,.832-50.217-.128-15.488-.382-21.946-.9-22.777-.089-.144-.746-.153-2.111-.029-1.948.176-8.7.55-19.644,1.089-10.274.505-18.125.327-21.36-.486l-1.316-.331-.123,1.984c-.068,1.091-.257,5.094-.42,8.9-1.624,37.836-.421,62.92,3.127,65.159.434.274,7.06.9,13.741,1.3a187.521,187.521,0,0,0,19.227-.27m15.62-8.28a54.228,54.228,0,0,0,4.967-7.886l.857-1.723-.4-.536c-.6-.793-.75-.758-1.219.277-.234.518-.862,1.7-1.393,2.62-1.484,2.576-6.235,10.937-6.341,11.16-.219.456,2.272-2.3,3.531-3.912m-.229-5.538c1.23-2.155,2.532-4.563,2.892-5.35.837-1.827,1.426-2.158,2.715-1.524a2.208,2.208,0,0,0,.928.321c.227-.226.256-15.594.048-25.179-.344-15.825-.984-35.052-1.184-35.58-.163-.43-.195-.4-.41.422-.847,3.221-1.807,5.573-2.463,6.03-.624.435-.862.37-2.138-.585-1.454-1.088-4.312-2.244-4.583-1.854a8.61,8.61,0,0,0-.072,2.334c.463,8.689.549,15.209.443,33.677-.1,18-.322,29.961-.621,33.775l-.108,1.382,1.158-1.975c.637-1.085,2.162-3.733,3.4-5.894M25.4,99.03a26.955,26.955,0,0,1-6.62-1.815,17.274,17.274,0,0,1-5.489-5.181c-4.238-6.339-4.587-13.619-.907-18.942,2.077-3.005,6.1-5.682,10.745-7.155.921-.292,1.7-.546,1.722-.565a9.915,9.915,0,0,0-.244-1.4A14.115,14.115,0,0,1,29,50.642c2.243-2.109,3.084-2.541,3.643-1.871.384.461.077,1.135-.812,1.78a22.408,22.408,0,0,0-2.251,2.106,13.093,13.093,0,0,0-3.063,5.178l-.2.765,1.43-1.371a23.228,23.228,0,0,1,2.323-1.973A22.523,22.523,0,0,1,37.935,52.1c.936-.11,1.048-.078,1.348.376.74,1.125-.536,4.807-2.365,6.821a19.528,19.528,0,0,1-7.946,4.959c-1.706.623-1.677.712.3.9A25.123,25.123,0,0,1,38.7,68.882,20.1,20.1,0,0,1,43.746,74.1c2.444,4.114,2.621,9.028.515,14.266-2.239,5.57-5.909,8.968-11.118,10.291a26.361,26.361,0,0,1-7.74.373m5.557-1.773c6.195-.879,10.593-5.067,12.436-11.844a15.755,15.755,0,0,0-.015-7.876c-1.3-3.939-5.049-7.466-9.99-9.391C29.675,66.7,27.5,66.5,24.618,67.338c-6.558,1.91-10.636,5.21-12.369,10.01a15.562,15.562,0,0,0-.079,8.065c1.172,4.305,4.29,8.618,7.345,10.161A25.484,25.484,0,0,0,26.3,97.327a21.424,21.424,0,0,0,4.664-.07m-.359-18a1.422,1.422,0,0,1-.1-1.708c.324-.323.952-.3.952.035a.827.827,0,0,1-.3.522c-.271.224-.271.285,0,.583a1.3,1.3,0,0,1,.3.444c0,.228-.531.3-.855.124m2.847-5.883a1.007,1.007,0,0,1,.869-1.593c.9,0,1.565,1.561.795,1.856-.567.216-.671.127-.55-.473.093-.464.049-.593-.2-.593-.226,0-.323.178-.323.593,0,.672-.282.775-.588.21m-4.29-.928c.156-.709-.322-1.3-.727-.893-.174.173-.172.286.009.465.363.362.284.751-.152.751-.4,0-.8-.533-.8-1.073,0-.475.735-1.1,1.293-1.1.349,0,.618.193.895.642.479.776.441,1.09-.179,1.5-.466.308-.47.306-.338-.29m-.926-9.833C33.006,61,36.858,57.691,37.5,54.65c.166-.785.118-.789-1.807-.146a16.288,16.288,0,0,0-8.637,6.289c-.766,1.18-1.01,2.3-.5,2.3a11.7,11.7,0,0,0,1.673-.478M58.38,36.088a57.132,57.132,0,0,0,1.77-6.868l.139-.988-1.666,1.58a38.721,38.721,0,0,1-4.806,4.038l-.959.645,1.566.628a21.919,21.919,0,0,1,2.448,1.157,5.614,5.614,0,0,0,1.04.536c.087,0,.3-.323.468-.728m-30.1-.547c3.22-.159,7.194-.381,8.831-.492s4.808-.289,7.046-.394a43.311,43.311,0,0,0,4.862-.413,18.276,18.276,0,0,0,5.263-2.96,72.582,72.582,0,0,0,6.546-6.337c0-.2-.478-.317-2.381-.582-2.006-.28-15.343-.434-20.641-.238l-4.267.157-.272,1.671c-.207,1.274-.216,1.689-.037,1.749.385.127.616.974.412,1.508-.238.622-1,1.008-2.546,1.287-2.731.493-4.507-.167-4-1.486a20.08,20.08,0,0,0,.821-4.443A101.665,101.665,0,0,0,17.279,25c-3.138.51-7.669,3.852-10.9,8.043-.82,1.062-.926,1.293-.694,1.523.387.384,2.369.852,4.449,1.051,2.884.276,11.856.24,18.152-.072M32,22.2l.777-3.821c1.377-6.773,2.085-8.833,3.287-9.571,1.314-.807,4.54-1.794,12.293-3.761C50.939,4.4,53.4,3.7,53.815,3.511l.763-.349-.858-.069c-1.749-.14-8.6,1.506-15.417,3.7-3.708,1.195-3.92,1.358-4.842,3.738a97.552,97.552,0,0,0-2.975,11.26l-.006,0-.9,4.417c-.188,1-.384,1.982-.435,2.172-.08.292.045.346.8.346a1.8,1.8,0,0,0,1.021-.2c.081-.131,1.05-6.314,1.05-6.314Z" fill="#2d1717" fill-rule="evenodd"/>
  </g>
</svg>
